<svg width="1302" height="95" viewBox="0 0 1302 95" fill="none" xmlns="http://www.w3.org/2000/svg">
<line x1="1174" y1="22.5" x2="1278" y2="22.5" stroke="#FCB66B" stroke-width="5"/>
<path d="M61.7851 71.16C60.6117 71.16 59.6037 70.9253 58.7611 70.456C57.9291 69.976 57.2891 69.304 56.8411 68.44C56.3931 67.5653 56.1691 66.536 56.1691 65.352C56.1691 64.168 56.3931 63.144 56.8411 62.28C57.2891 61.416 57.9291 60.7493 58.7611 60.28C59.6037 59.8 60.6117 59.56 61.7851 59.56C62.5744 59.56 63.2837 59.672 63.9131 59.896C64.5531 60.12 65.1024 60.4507 65.5611 60.888L64.8891 62.52C64.3877 62.1147 63.9024 61.8267 63.4331 61.656C62.9744 61.4747 62.4464 61.384 61.8491 61.384C60.7077 61.384 59.8331 61.7307 59.2251 62.424C58.6277 63.1067 58.3291 64.0827 58.3291 65.352C58.3291 66.6213 58.6277 67.6027 59.2251 68.296C59.8331 68.9893 60.7077 69.336 61.8491 69.336C62.4464 69.336 62.9744 69.2507 63.4331 69.08C63.9024 68.8987 64.3877 68.6 64.8891 68.184L65.5611 69.816C65.1024 70.2427 64.5531 70.5733 63.9131 70.808C63.2837 71.0427 62.5744 71.16 61.7851 71.16ZM67.3142 71V64.984C67.3142 64.6427 67.3035 64.296 67.2822 63.944C67.2715 63.592 67.2449 63.2507 67.2022 62.92H69.1382L69.3622 65.128H69.0422C69.1489 64.5947 69.3249 64.152 69.5702 63.8C69.8262 63.448 70.1355 63.1867 70.4982 63.016C70.8609 62.8453 71.2555 62.76 71.6822 62.76C71.8742 62.76 72.0289 62.7707 72.1462 62.792C72.2635 62.8027 72.3809 62.8293 72.4982 62.872L72.4822 64.632C72.2795 64.5467 72.1035 64.4933 71.9542 64.472C71.8155 64.4507 71.6395 64.44 71.4262 64.44C70.9675 64.44 70.5782 64.536 70.2582 64.728C69.9489 64.92 69.7142 65.1867 69.5542 65.528C69.4049 65.8693 69.3302 66.2587 69.3302 66.696V71H67.3142ZM77.3904 71.16C76.0358 71.16 74.9744 70.7867 74.2064 70.04C73.4384 69.2933 73.0544 68.2693 73.0544 66.968C73.0544 66.1253 73.2198 65.3893 73.5504 64.76C73.8811 64.1307 74.3398 63.64 74.9264 63.288C75.5238 62.936 76.2171 62.76 77.0064 62.76C77.7851 62.76 78.4358 62.9253 78.9584 63.256C79.4811 63.5867 79.8758 64.0507 80.1424 64.648C80.4198 65.2453 80.5584 65.944 80.5584 66.744V67.272H74.6704V66.216H79.1344L78.8624 66.44C78.8624 65.6933 78.7024 65.1227 78.3824 64.728C78.0731 64.3333 77.6198 64.136 77.0224 64.136C76.3611 64.136 75.8491 64.3707 75.4864 64.84C75.1344 65.3093 74.9584 65.9653 74.9584 66.808V67.016C74.9584 67.8907 75.1718 68.5467 75.5984 68.984C76.0358 69.4107 76.6491 69.624 77.4384 69.624C77.8971 69.624 78.3238 69.5653 78.7184 69.448C79.1238 69.32 79.5078 69.1173 79.8704 68.84L80.4624 70.184C80.0784 70.4933 79.6198 70.7333 79.0864 70.904C78.5531 71.0747 77.9878 71.16 77.3904 71.16ZM76.3344 62.136L77.9824 58.888H79.9504L77.6784 62.136H76.3344ZM85.3721 71.16C84.6681 71.16 84.0494 70.9947 83.5161 70.664C82.9827 70.3227 82.5667 69.8373 82.2681 69.208C81.9694 68.5787 81.8201 67.8267 81.8201 66.952C81.8201 66.0773 81.9694 65.3307 82.2681 64.712C82.5667 64.0827 82.9827 63.6027 83.5161 63.272C84.0494 62.9307 84.6681 62.76 85.3721 62.76C86.0547 62.76 86.6521 62.9307 87.1641 63.272C87.6867 63.6027 88.0334 64.0507 88.2041 64.616H88.0281L88.2041 62.92H90.1241C90.0921 63.2507 90.0601 63.5867 90.0281 63.928C90.0067 64.2693 89.9961 64.6053 89.9961 64.936V71H88.0121L87.9961 69.336H88.1881C88.0174 69.8907 87.6707 70.3333 87.1481 70.664C86.6254 70.9947 86.0334 71.16 85.3721 71.16ZM85.9321 69.624C86.5614 69.624 87.0681 69.4053 87.4521 68.968C87.8361 68.52 88.0281 67.848 88.0281 66.952C88.0281 66.056 87.8361 65.3893 87.4521 64.952C87.0681 64.5147 86.5614 64.296 85.9321 64.296C85.3027 64.296 84.7961 64.5147 84.4121 64.952C84.0281 65.3893 83.8361 66.056 83.8361 66.952C83.8361 67.848 84.0227 68.52 84.3961 68.968C84.7801 69.4053 85.2921 69.624 85.9321 69.624ZM95.6299 71.16C94.6699 71.16 93.9446 70.9093 93.4539 70.408C92.9633 69.9067 92.7179 69.1547 92.7179 68.152V64.424H91.1659V62.92H92.7179V60.856L94.7179 60.344V62.92H96.8779V64.424H94.7179V68.024C94.7179 68.5787 94.8246 68.968 95.0379 69.192C95.2513 69.416 95.5446 69.528 95.9179 69.528C96.1206 69.528 96.2913 69.512 96.4299 69.48C96.5793 69.448 96.7233 69.4053 96.8619 69.352V70.936C96.6806 71.0107 96.4779 71.064 96.2539 71.096C96.0406 71.1387 95.8326 71.16 95.6299 71.16ZM98.2364 71V62.92H100.236V71H98.2364ZM98.1244 61.4V59.448H100.348V61.4H98.1244ZM106.056 71.16C105.224 71.16 104.504 70.9893 103.896 70.648C103.288 70.3067 102.814 69.8213 102.472 69.192C102.142 68.5627 101.976 67.816 101.976 66.952C101.976 66.088 102.142 65.3467 102.472 64.728C102.814 64.0987 103.288 63.6133 103.896 63.272C104.504 62.9307 105.224 62.76 106.056 62.76C106.888 62.76 107.608 62.9307 108.216 63.272C108.835 63.6133 109.31 64.0987 109.64 64.728C109.982 65.3467 110.152 66.088 110.152 66.952C110.152 67.816 109.982 68.5627 109.64 69.192C109.31 69.8213 108.835 70.3067 108.216 70.648C107.608 70.9893 106.888 71.16 106.056 71.16ZM106.056 69.624C106.686 69.624 107.187 69.4053 107.56 68.968C107.934 68.52 108.12 67.848 108.12 66.952C108.12 66.056 107.934 65.3893 107.56 64.952C107.187 64.5147 106.686 64.296 106.056 64.296C105.427 64.296 104.926 64.5147 104.552 64.952C104.179 65.3893 103.992 66.056 103.992 66.952C103.992 67.848 104.179 68.52 104.552 68.968C104.926 69.4053 105.427 69.624 106.056 69.624ZM111.877 71V64.936C111.877 64.6053 111.866 64.2693 111.845 63.928C111.824 63.5867 111.792 63.2507 111.749 62.92H113.685L113.845 64.52H113.653C113.909 63.9547 114.288 63.5227 114.789 63.224C115.29 62.9147 115.872 62.76 116.533 62.76C117.482 62.76 118.197 63.0267 118.677 63.56C119.157 64.0933 119.397 64.9253 119.397 66.056V71H117.397V66.152C117.397 65.5013 117.269 65.0373 117.013 64.76C116.768 64.472 116.394 64.328 115.893 64.328C115.274 64.328 114.784 64.52 114.421 64.904C114.058 65.288 113.877 65.8 113.877 66.44V71H111.877ZM130.532 71.16C129.85 71.16 129.252 70.9947 128.74 70.664C128.228 70.3227 127.887 69.864 127.716 69.288H127.892V71H125.908V59.224H127.908V64.568H127.716C127.898 64.0133 128.244 63.576 128.756 63.256C129.268 62.9253 129.86 62.76 130.532 62.76C131.247 62.76 131.871 62.9307 132.404 63.272C132.938 63.6133 133.354 64.0987 133.652 64.728C133.951 65.3467 134.1 66.0933 134.1 66.968C134.1 67.8427 133.951 68.5947 133.652 69.224C133.354 69.8427 132.932 70.3227 132.388 70.664C131.855 70.9947 131.236 71.16 130.532 71.16ZM129.972 69.624C130.602 69.624 131.108 69.4053 131.492 68.968C131.887 68.5307 132.084 67.864 132.084 66.968C132.084 66.072 131.887 65.4053 131.492 64.968C131.108 64.52 130.602 64.296 129.972 64.296C129.343 64.296 128.836 64.5147 128.452 64.952C128.068 65.3893 127.876 66.056 127.876 66.952C127.876 67.848 128.068 68.52 128.452 68.968C128.836 69.4053 129.343 69.624 129.972 69.624ZM139.478 71.16C138.646 71.16 137.926 70.9893 137.318 70.648C136.71 70.3067 136.236 69.8213 135.894 69.192C135.564 68.5627 135.398 67.816 135.398 66.952C135.398 66.088 135.564 65.3467 135.894 64.728C136.236 64.0987 136.71 63.6133 137.318 63.272C137.926 62.9307 138.646 62.76 139.478 62.76C140.31 62.76 141.03 62.9307 141.638 63.272C142.257 63.6133 142.732 64.0987 143.062 64.728C143.404 65.3467 143.574 66.088 143.574 66.952C143.574 67.816 143.404 68.5627 143.062 69.192C142.732 69.8213 142.257 70.3067 141.638 70.648C141.03 70.9893 140.31 71.16 139.478 71.16ZM139.478 69.624C140.108 69.624 140.609 69.4053 140.982 68.968C141.356 68.52 141.542 67.848 141.542 66.952C141.542 66.056 141.356 65.3893 140.982 64.952C140.609 64.5147 140.108 64.296 139.478 64.296C138.849 64.296 138.348 64.5147 137.974 64.952C137.601 65.3893 137.414 66.056 137.414 66.952C137.414 67.848 137.601 68.52 137.974 68.968C138.348 69.4053 138.849 69.624 139.478 69.624ZM145.283 71V64.984C145.283 64.6427 145.272 64.296 145.251 63.944C145.24 63.592 145.214 63.2507 145.171 62.92H147.107L147.331 65.128H147.011C147.118 64.5947 147.294 64.152 147.539 63.8C147.795 63.448 148.104 63.1867 148.467 63.016C148.83 62.8453 149.224 62.76 149.651 62.76C149.843 62.76 149.998 62.7707 150.115 62.792C150.232 62.8027 150.35 62.8293 150.467 62.872L150.451 64.632C150.248 64.5467 150.072 64.4933 149.923 64.472C149.784 64.4507 149.608 64.44 149.395 64.44C148.936 64.44 148.547 64.536 148.227 64.728C147.918 64.92 147.683 65.1867 147.523 65.528C147.374 65.8693 147.299 66.2587 147.299 66.696V71H145.283ZM154.591 71.16C153.887 71.16 153.263 70.9947 152.719 70.664C152.186 70.3227 151.77 69.8373 151.471 69.208C151.173 68.5787 151.023 67.8267 151.023 66.952C151.023 66.0773 151.173 65.3307 151.471 64.712C151.77 64.0827 152.186 63.6027 152.719 63.272C153.263 62.9307 153.887 62.76 154.591 62.76C155.263 62.76 155.855 62.9253 156.367 63.256C156.89 63.576 157.237 64.0133 157.407 64.568H157.199V59.224H159.199V71H157.231V69.288H157.423C157.253 69.864 156.906 70.3227 156.383 70.664C155.871 70.9947 155.274 71.16 154.591 71.16ZM155.151 69.624C155.781 69.624 156.287 69.4053 156.671 68.968C157.055 68.52 157.247 67.848 157.247 66.952C157.247 66.056 157.055 65.3893 156.671 64.952C156.287 64.5147 155.781 64.296 155.151 64.296C154.522 64.296 154.01 64.5147 153.615 64.952C153.231 65.3893 153.039 66.056 153.039 66.952C153.039 67.848 153.231 68.52 153.615 68.968C154.01 69.4053 154.522 69.624 155.151 69.624ZM165.281 71.16C163.926 71.16 162.865 70.7867 162.097 70.04C161.329 69.2933 160.945 68.2693 160.945 66.968C160.945 66.1253 161.11 65.3893 161.441 64.76C161.772 64.1307 162.23 63.64 162.817 63.288C163.414 62.936 164.108 62.76 164.897 62.76C165.676 62.76 166.326 62.9253 166.849 63.256C167.372 63.5867 167.766 64.0507 168.033 64.648C168.31 65.2453 168.449 65.944 168.449 66.744V67.272H162.561V66.216H167.025L166.753 66.44C166.753 65.6933 166.593 65.1227 166.273 64.728C165.964 64.3333 165.51 64.136 164.913 64.136C164.252 64.136 163.74 64.3707 163.377 64.84C163.025 65.3093 162.849 65.9653 162.849 66.808V67.016C162.849 67.8907 163.062 68.5467 163.489 68.984C163.926 69.4107 164.54 69.624 165.329 69.624C165.788 69.624 166.214 69.5653 166.609 69.448C167.014 69.32 167.398 69.1173 167.761 68.84L168.353 70.184C167.969 70.4933 167.51 70.7333 166.977 70.904C166.444 71.0747 165.878 71.16 165.281 71.16ZM170.127 71V64.984C170.127 64.6427 170.116 64.296 170.095 63.944C170.084 63.592 170.057 63.2507 170.015 62.92H171.951L172.175 65.128H171.855C171.961 64.5947 172.137 64.152 172.383 63.8C172.639 63.448 172.948 63.1867 173.311 63.016C173.673 62.8453 174.068 62.76 174.495 62.76C174.687 62.76 174.841 62.7707 174.959 62.792C175.076 62.8027 175.193 62.8293 175.311 62.872L175.295 64.632C175.092 64.5467 174.916 64.4933 174.767 64.472C174.628 64.4507 174.452 64.44 174.239 64.44C173.78 64.44 173.391 64.536 173.071 64.728C172.761 64.92 172.527 65.1867 172.367 65.528C172.217 65.8693 172.143 66.2587 172.143 66.696V71H170.127ZM179.466 71.16C178.762 71.16 178.143 70.9947 177.61 70.664C177.076 70.3227 176.66 69.8373 176.362 69.208C176.063 68.5787 175.914 67.8267 175.914 66.952C175.914 66.0773 176.063 65.3307 176.362 64.712C176.66 64.0827 177.076 63.6027 177.61 63.272C178.143 62.9307 178.762 62.76 179.466 62.76C180.148 62.76 180.746 62.9307 181.258 63.272C181.78 63.6027 182.127 64.0507 182.298 64.616H182.122L182.298 62.92H184.218C184.186 63.2507 184.154 63.5867 184.122 63.928C184.1 64.2693 184.09 64.6053 184.09 64.936V71H182.106L182.09 69.336H182.282C182.111 69.8907 181.764 70.3333 181.242 70.664C180.719 70.9947 180.127 71.16 179.466 71.16ZM180.026 69.624C180.655 69.624 181.162 69.4053 181.546 68.968C181.93 68.52 182.122 67.848 182.122 66.952C182.122 66.056 181.93 65.3893 181.546 64.952C181.162 64.5147 180.655 64.296 180.026 64.296C179.396 64.296 178.89 64.5147 178.506 64.952C178.122 65.3893 177.93 66.056 177.93 66.952C177.93 67.848 178.116 68.52 178.49 68.968C178.874 69.4053 179.386 69.624 180.026 69.624ZM189.18 71.16C188.188 71.16 187.446 70.888 186.956 70.344C186.465 69.8 186.22 68.968 186.22 67.848V62.92H188.22V67.832C188.22 68.4293 188.342 68.872 188.588 69.16C188.833 69.4373 189.206 69.576 189.708 69.576C190.273 69.576 190.732 69.384 191.084 69C191.446 68.616 191.628 68.1093 191.628 67.48V62.92H193.628V71H191.676V69.352H191.9C191.665 69.928 191.308 70.376 190.828 70.696C190.358 71.0053 189.809 71.16 189.18 71.16ZM85.4506 91.16C84.7466 91.16 84.1226 90.9947 83.5786 90.664C83.0452 90.3227 82.6292 89.8373 82.3306 89.208C82.0319 88.5787 81.8826 87.8267 81.8826 86.952C81.8826 86.0773 82.0319 85.3307 82.3306 84.712C82.6292 84.0827 83.0452 83.6027 83.5786 83.272C84.1226 82.9307 84.7466 82.76 85.4506 82.76C86.1226 82.76 86.7146 82.9253 87.2266 83.256C87.7492 83.576 88.0959 84.0133 88.2666 84.568H88.0586V79.224H90.0586V91H88.0906V89.288H88.2826C88.1119 89.864 87.7652 90.3227 87.2426 90.664C86.7306 90.9947 86.1332 91.16 85.4506 91.16ZM86.0106 89.624C86.6399 89.624 87.1466 89.4053 87.5306 88.968C87.9146 88.52 88.1066 87.848 88.1066 86.952C88.1066 86.056 87.9146 85.3893 87.5306 84.952C87.1466 84.5147 86.6399 84.296 86.0106 84.296C85.3812 84.296 84.8692 84.5147 84.4746 84.952C84.0906 85.3893 83.8986 86.056 83.8986 86.952C83.8986 87.848 84.0906 88.52 84.4746 88.968C84.8692 89.4053 85.3812 89.624 86.0106 89.624ZM96.1404 91.16C94.7858 91.16 93.7244 90.7867 92.9564 90.04C92.1884 89.2933 91.8044 88.2693 91.8044 86.968C91.8044 86.1253 91.9698 85.3893 92.3004 84.76C92.6311 84.1307 93.0898 83.64 93.6764 83.288C94.2738 82.936 94.9671 82.76 95.7564 82.76C96.5351 82.76 97.1858 82.9253 97.7084 83.256C98.2311 83.5867 98.6258 84.0507 98.8924 84.648C99.1698 85.2453 99.3084 85.944 99.3084 86.744V87.272H93.4204V86.216H97.8844L97.6124 86.44C97.6124 85.6933 97.4524 85.1227 97.1324 84.728C96.8231 84.3333 96.3698 84.136 95.7724 84.136C95.1111 84.136 94.5991 84.3707 94.2364 84.84C93.8844 85.3093 93.7084 85.9653 93.7084 86.808V87.016C93.7084 87.8907 93.9218 88.5467 94.3484 88.984C94.7858 89.4107 95.3991 89.624 96.1884 89.624C96.6471 89.624 97.0738 89.5653 97.4684 89.448C97.8738 89.32 98.2578 89.1173 98.6204 88.84L99.2124 90.184C98.8284 90.4933 98.3698 90.7333 97.8364 90.904C97.3031 91.0747 96.7378 91.16 96.1404 91.16ZM105.393 91V79.224H107.393V91H105.393ZM109.565 91V82.92H111.565V91H109.565ZM109.453 81.4V79.448H111.677V81.4H109.453ZM116.104 91L112.616 82.92H114.744L117.272 89.24H116.776L119.368 82.92H121.368L117.864 91H116.104ZM122.424 91V84.984C122.424 84.6427 122.413 84.296 122.392 83.944C122.381 83.592 122.354 83.2507 122.312 82.92H124.248L124.472 85.128H124.152C124.258 84.5947 124.434 84.152 124.68 83.8C124.936 83.448 125.245 83.1867 125.608 83.016C125.97 82.8453 126.365 82.76 126.792 82.76C126.984 82.76 127.138 82.7707 127.256 82.792C127.373 82.8027 127.49 82.8293 127.608 82.872L127.592 84.632C127.389 84.5467 127.213 84.4933 127.064 84.472C126.925 84.4507 126.749 84.44 126.536 84.44C126.077 84.44 125.688 84.536 125.368 84.728C125.058 84.92 124.824 85.1867 124.664 85.528C124.514 85.8693 124.44 86.2587 124.44 86.696V91H122.424ZM131.763 91.16C131.059 91.16 130.44 90.9947 129.907 90.664C129.373 90.3227 128.957 89.8373 128.659 89.208C128.36 88.5787 128.211 87.8267 128.211 86.952C128.211 86.0773 128.36 85.3307 128.659 84.712C128.957 84.0827 129.373 83.6027 129.907 83.272C130.44 82.9307 131.059 82.76 131.763 82.76C132.445 82.76 133.043 82.9307 133.555 83.272C134.077 83.6027 134.424 84.0507 134.595 84.616H134.419L134.595 82.92H136.515C136.483 83.2507 136.451 83.5867 136.419 83.928C136.397 84.2693 136.387 84.6053 136.387 84.936V91H134.403L134.387 89.336H134.579C134.408 89.8907 134.061 90.3333 133.539 90.664C133.016 90.9947 132.424 91.16 131.763 91.16ZM132.323 89.624C132.952 89.624 133.459 89.4053 133.843 88.968C134.227 88.52 134.419 87.848 134.419 86.952C134.419 86.056 134.227 85.3893 133.843 84.952C133.459 84.5147 132.952 84.296 132.323 84.296C131.693 84.296 131.187 84.5147 130.803 84.952C130.419 85.3893 130.227 86.056 130.227 86.952C130.227 87.848 130.413 88.52 130.787 88.968C131.171 89.4053 131.683 89.624 132.323 89.624ZM138.565 91V82.92H140.565V91H138.565ZM138.453 81.4V79.448H140.677V81.4H138.453ZM145.616 91.16C144.923 91.16 144.283 91.08 143.696 90.92C143.12 90.7493 142.635 90.5147 142.24 90.216L142.8 88.872C143.206 89.1493 143.654 89.3627 144.144 89.512C144.635 89.6613 145.131 89.736 145.632 89.736C146.166 89.736 146.56 89.6453 146.816 89.464C147.083 89.2827 147.216 89.0373 147.216 88.728C147.216 88.4827 147.131 88.2907 146.96 88.152C146.8 88.0027 146.539 87.8907 146.176 87.816L144.576 87.512C143.894 87.3627 143.371 87.1067 143.008 86.744C142.656 86.3813 142.48 85.9067 142.48 85.32C142.48 84.8187 142.614 84.376 142.88 83.992C143.158 83.608 143.547 83.3093 144.048 83.096C144.56 82.872 145.158 82.76 145.84 82.76C146.438 82.76 146.998 82.84 147.52 83C148.054 83.16 148.502 83.4 148.864 83.72L148.288 85.016C147.958 84.7493 147.579 84.5413 147.152 84.392C146.726 84.2427 146.31 84.168 145.904 84.168C145.35 84.168 144.944 84.2693 144.688 84.472C144.432 84.664 144.304 84.9147 144.304 85.224C144.304 85.4587 144.379 85.656 144.528 85.816C144.688 85.9653 144.934 86.0773 145.264 86.152L146.864 86.456C147.579 86.5947 148.118 86.84 148.48 87.192C148.854 87.5333 149.04 88.0027 149.04 88.6C149.04 89.1333 148.896 89.592 148.608 89.976C148.32 90.36 147.92 90.6533 147.408 90.856C146.896 91.0587 146.299 91.16 145.616 91.16ZM154.4 91.16C153.568 91.16 152.848 90.9893 152.24 90.648C151.632 90.3067 151.157 89.8213 150.816 89.192C150.485 88.5627 150.32 87.816 150.32 86.952C150.32 86.088 150.485 85.3467 150.816 84.728C151.157 84.0987 151.632 83.6133 152.24 83.272C152.848 82.9307 153.568 82.76 154.4 82.76C155.232 82.76 155.952 82.9307 156.56 83.272C157.179 83.6133 157.653 84.0987 157.984 84.728C158.325 85.3467 158.496 86.088 158.496 86.952C158.496 87.816 158.325 88.5627 157.984 89.192C157.653 89.8213 157.179 90.3067 156.56 90.648C155.952 90.9893 155.232 91.16 154.4 91.16ZM154.4 89.624C155.029 89.624 155.531 89.4053 155.904 88.968C156.277 88.52 156.464 87.848 156.464 86.952C156.464 86.056 156.277 85.3893 155.904 84.952C155.531 84.5147 155.029 84.296 154.4 84.296C153.771 84.296 153.269 84.5147 152.896 84.952C152.523 85.3893 152.336 86.056 152.336 86.952C152.336 87.848 152.523 88.52 152.896 88.968C153.269 89.4053 153.771 89.624 154.4 89.624ZM160.221 91V84.936C160.221 84.6053 160.21 84.2693 160.189 83.928C160.167 83.5867 160.135 83.2507 160.093 82.92H162.029L162.189 84.52H161.997C162.253 83.9547 162.631 83.5227 163.133 83.224C163.634 82.9147 164.215 82.76 164.877 82.76C165.826 82.76 166.541 83.0267 167.021 83.56C167.501 84.0933 167.741 84.9253 167.741 86.056V91H165.741V86.152C165.741 85.5013 165.613 85.0373 165.357 84.76C165.111 84.472 164.738 84.328 164.237 84.328C163.618 84.328 163.127 84.52 162.765 84.904C162.402 85.288 162.221 85.8 162.221 86.44V91H160.221Z" fill="black"/>
<path d="M299.037 70V58.72H304.045C305.282 58.72 306.226 59.0187 306.877 59.616C307.528 60.2133 307.853 61.0347 307.853 62.08C307.853 63.1147 307.528 63.936 306.877 64.544C306.226 65.152 305.282 65.456 304.045 65.456H301.101V70H299.037ZM301.101 63.824H303.805C304.488 63.824 305 63.6747 305.341 63.376C305.682 63.0667 305.853 62.6347 305.853 62.08C305.853 61.5253 305.682 61.0987 305.341 60.8C305 60.4907 304.488 60.336 303.805 60.336H301.101V63.824ZM309.361 70V63.984C309.361 63.6427 309.35 63.296 309.329 62.944C309.318 62.592 309.292 62.2507 309.249 61.92H311.185L311.409 64.128H311.089C311.196 63.5947 311.372 63.152 311.617 62.8C311.873 62.448 312.182 62.1867 312.545 62.016C312.908 61.8453 313.302 61.76 313.729 61.76C313.921 61.76 314.076 61.7707 314.193 61.792C314.31 61.8027 314.428 61.8293 314.545 61.872L314.529 63.632C314.326 63.5467 314.15 63.4933 314.001 63.472C313.862 63.4507 313.686 63.44 313.473 63.44C313.014 63.44 312.625 63.536 312.305 63.728C311.996 63.92 311.761 64.1867 311.601 64.528C311.452 64.8693 311.377 65.2587 311.377 65.696V70H309.361ZM315.658 70V61.92H317.658V70H315.658ZM315.546 60.4V58.448H317.77V60.4H315.546ZM322.71 70.16C322.017 70.16 321.377 70.08 320.79 69.92C320.214 69.7493 319.729 69.5147 319.334 69.216L319.894 67.872C320.3 68.1493 320.748 68.3627 321.238 68.512C321.729 68.6613 322.225 68.736 322.726 68.736C323.26 68.736 323.654 68.6453 323.91 68.464C324.177 68.2827 324.31 68.0373 324.31 67.728C324.31 67.4827 324.225 67.2907 324.054 67.152C323.894 67.0027 323.633 66.8907 323.27 66.816L321.67 66.512C320.988 66.3627 320.465 66.1067 320.102 65.744C319.75 65.3813 319.574 64.9067 319.574 64.32C319.574 63.8187 319.708 63.376 319.974 62.992C320.252 62.608 320.641 62.3093 321.142 62.096C321.654 61.872 322.252 61.76 322.934 61.76C323.532 61.76 324.092 61.84 324.614 62C325.148 62.16 325.596 62.4 325.958 62.72L325.382 64.016C325.052 63.7493 324.673 63.5413 324.246 63.392C323.82 63.2427 323.404 63.168 322.998 63.168C322.444 63.168 322.038 63.2693 321.782 63.472C321.526 63.664 321.398 63.9147 321.398 64.224C321.398 64.4587 321.473 64.656 321.622 64.816C321.782 64.9653 322.028 65.0773 322.358 65.152L323.958 65.456C324.673 65.5947 325.212 65.84 325.574 66.192C325.948 66.5333 326.134 67.0027 326.134 67.6C326.134 68.1333 325.99 68.592 325.702 68.976C325.414 69.36 325.014 69.6533 324.502 69.856C323.99 70.0587 323.393 70.16 322.71 70.16ZM331.75 70.16C330.395 70.16 329.334 69.7867 328.566 69.04C327.798 68.2933 327.414 67.2693 327.414 65.968C327.414 65.1253 327.579 64.3893 327.91 63.76C328.24 63.1307 328.699 62.64 329.286 62.288C329.883 61.936 330.576 61.76 331.366 61.76C332.144 61.76 332.795 61.9253 333.318 62.256C333.84 62.5867 334.235 63.0507 334.502 63.648C334.779 64.2453 334.918 64.944 334.918 65.744V66.272H329.03V65.216H333.494L333.222 65.44C333.222 64.6933 333.062 64.1227 332.742 63.728C332.432 63.3333 331.979 63.136 331.382 63.136C330.72 63.136 330.208 63.3707 329.846 63.84C329.494 64.3093 329.318 64.9653 329.318 65.808V66.016C329.318 66.8907 329.531 67.5467 329.958 67.984C330.395 68.4107 331.008 68.624 331.798 68.624C332.256 68.624 332.683 68.5653 333.078 68.448C333.483 68.32 333.867 68.1173 334.23 67.84L334.822 69.184C334.438 69.4933 333.979 69.7333 333.446 69.904C332.912 70.0747 332.347 70.16 331.75 70.16ZM344.906 70.16C343.551 70.16 342.49 69.7867 341.722 69.04C340.954 68.2933 340.57 67.2693 340.57 65.968C340.57 65.1253 340.735 64.3893 341.066 63.76C341.397 63.1307 341.855 62.64 342.442 62.288C343.039 61.936 343.733 61.76 344.522 61.76C345.301 61.76 345.951 61.9253 346.474 62.256C346.997 62.5867 347.391 63.0507 347.658 63.648C347.935 64.2453 348.074 64.944 348.074 65.744V66.272H342.186V65.216H346.65L346.378 65.44C346.378 64.6933 346.218 64.1227 345.898 63.728C345.589 63.3333 345.135 63.136 344.538 63.136C343.877 63.136 343.365 63.3707 343.002 63.84C342.65 64.3093 342.474 64.9653 342.474 65.808V66.016C342.474 66.8907 342.687 67.5467 343.114 67.984C343.551 68.4107 344.165 68.624 344.954 68.624C345.413 68.624 345.839 68.5653 346.234 68.448C346.639 68.32 347.023 68.1173 347.386 67.84L347.978 69.184C347.594 69.4933 347.135 69.7333 346.602 69.904C346.069 70.0747 345.503 70.16 344.906 70.16ZM349.768 70V63.936C349.768 63.6053 349.757 63.2693 349.736 62.928C349.714 62.5867 349.682 62.2507 349.64 61.92H351.576L351.736 63.52H351.544C351.8 62.9547 352.178 62.5227 352.68 62.224C353.181 61.9147 353.762 61.76 354.424 61.76C355.373 61.76 356.088 62.0267 356.568 62.56C357.048 63.0933 357.288 63.9253 357.288 65.056V70H355.288V65.152C355.288 64.5013 355.16 64.0373 354.904 63.76C354.658 63.472 354.285 63.328 353.784 63.328C353.165 63.328 352.674 63.52 352.312 63.904C351.949 64.288 351.768 64.8 351.768 65.44V70H349.768ZM367.511 70.16C366.679 70.16 365.948 69.9893 365.319 69.648C364.7 69.3067 364.22 68.8213 363.879 68.192C363.538 67.552 363.367 66.7947 363.367 65.92C363.367 65.0453 363.538 64.2987 363.879 63.68C364.231 63.0613 364.716 62.5867 365.335 62.256C365.954 61.9253 366.679 61.76 367.511 61.76C368.044 61.76 368.562 61.8453 369.063 62.016C369.575 62.176 369.991 62.4107 370.311 62.72L369.703 64.112C369.415 63.8453 369.09 63.648 368.727 63.52C368.375 63.3813 368.028 63.312 367.687 63.312C366.972 63.312 366.412 63.536 366.007 63.984C365.612 64.432 365.415 65.0827 365.415 65.936C365.415 66.7893 365.612 67.4453 366.007 67.904C366.412 68.3627 366.972 68.592 367.687 68.592C368.018 68.592 368.359 68.528 368.711 68.4C369.074 68.272 369.404 68.0747 369.703 67.808L370.311 69.184C369.98 69.4933 369.559 69.7333 369.047 69.904C368.546 70.0747 368.034 70.16 367.511 70.16ZM371.861 70V58.224H373.861V63.536H373.637C373.883 62.96 374.261 62.5227 374.773 62.224C375.285 61.9147 375.872 61.76 376.533 61.76C377.493 61.76 378.208 62.032 378.677 62.576C379.147 63.1093 379.381 63.9253 379.381 65.024V70H377.381V65.12C377.381 64.4907 377.259 64.0373 377.013 63.76C376.779 63.472 376.4 63.328 375.877 63.328C375.269 63.328 374.779 63.52 374.405 63.904C374.043 64.2773 373.861 64.7787 373.861 65.408V70H371.861ZM384.622 70.16C383.918 70.16 383.299 69.9947 382.766 69.664C382.233 69.3227 381.817 68.8373 381.518 68.208C381.219 67.5787 381.07 66.8267 381.07 65.952C381.07 65.0773 381.219 64.3307 381.518 63.712C381.817 63.0827 382.233 62.6027 382.766 62.272C383.299 61.9307 383.918 61.76 384.622 61.76C385.305 61.76 385.902 61.9307 386.414 62.272C386.937 62.6027 387.283 63.0507 387.454 63.616H387.278L387.454 61.92H389.374C389.342 62.2507 389.31 62.5867 389.278 62.928C389.257 63.2693 389.246 63.6053 389.246 63.936V70H387.262L387.246 68.336H387.438C387.267 68.8907 386.921 69.3333 386.398 69.664C385.875 69.9947 385.283 70.16 384.622 70.16ZM385.182 68.624C385.811 68.624 386.318 68.4053 386.702 67.968C387.086 67.52 387.278 66.848 387.278 65.952C387.278 65.056 387.086 64.3893 386.702 63.952C386.318 63.5147 385.811 63.296 385.182 63.296C384.553 63.296 384.046 63.5147 383.662 63.952C383.278 64.3893 383.086 65.056 383.086 65.952C383.086 66.848 383.273 67.52 383.646 67.968C384.03 68.4053 384.542 68.624 385.182 68.624ZM391.408 70V63.984C391.408 63.6427 391.397 63.296 391.376 62.944C391.365 62.592 391.339 62.2507 391.296 61.92H393.232L393.456 64.128H393.136C393.243 63.5947 393.419 63.152 393.664 62.8C393.92 62.448 394.229 62.1867 394.592 62.016C394.955 61.8453 395.349 61.76 395.776 61.76C395.968 61.76 396.123 61.7707 396.24 61.792C396.357 61.8027 396.475 61.8293 396.592 61.872L396.576 63.632C396.373 63.5467 396.197 63.4933 396.048 63.472C395.909 63.4507 395.733 63.44 395.52 63.44C395.061 63.44 394.672 63.536 394.352 63.728C394.043 63.92 393.808 64.1867 393.648 64.528C393.499 64.8693 393.424 65.2587 393.424 65.696V70H391.408ZM401.324 73.584C400.578 73.584 399.9 73.504 399.292 73.344C398.695 73.184 398.162 72.9387 397.692 72.608L398.124 71.168C398.434 71.3707 398.754 71.536 399.084 71.664C399.415 71.792 399.756 71.888 400.108 71.952C400.46 72.016 400.818 72.048 401.18 72.048C401.927 72.048 402.482 71.8613 402.844 71.488C403.218 71.1253 403.404 70.6027 403.404 69.92V67.984H403.564C403.394 68.5387 403.047 68.9813 402.524 69.312C402.012 69.6427 401.42 69.808 400.748 69.808C400.023 69.808 399.388 69.648 398.844 69.328C398.311 68.9973 397.895 68.528 397.596 67.92C397.298 67.312 397.148 66.5973 397.148 65.776C397.148 64.9547 397.298 64.2453 397.596 63.648C397.895 63.04 398.311 62.576 398.844 62.256C399.388 61.9253 400.023 61.76 400.748 61.76C401.431 61.76 402.023 61.9253 402.524 62.256C403.036 62.576 403.378 63.0133 403.548 63.568L403.404 63.472L403.564 61.92H405.5C405.458 62.2507 405.426 62.5867 405.404 62.928C405.383 63.2693 405.372 63.6053 405.372 63.936V69.68C405.372 70.9493 405.026 71.9147 404.332 72.576C403.65 73.248 402.647 73.584 401.324 73.584ZM401.292 68.272C401.932 68.272 402.439 68.0587 402.812 67.632C403.196 67.1947 403.388 66.576 403.388 65.776C403.388 64.976 403.196 64.3627 402.812 63.936C402.439 63.5093 401.932 63.296 401.292 63.296C400.642 63.296 400.124 63.5093 399.74 63.936C399.356 64.3627 399.164 64.976 399.164 65.776C399.164 66.576 399.356 67.1947 399.74 67.632C400.124 68.0587 400.642 68.272 401.292 68.272ZM411.437 70.16C410.083 70.16 409.021 69.7867 408.253 69.04C407.485 68.2933 407.101 67.2693 407.101 65.968C407.101 65.1253 407.267 64.3893 407.597 63.76C407.928 63.1307 408.387 62.64 408.973 62.288C409.571 61.936 410.264 61.76 411.053 61.76C411.832 61.76 412.483 61.9253 413.005 62.256C413.528 62.5867 413.923 63.0507 414.189 63.648C414.467 64.2453 414.605 64.944 414.605 65.744V66.272H408.717V65.216H413.181L412.909 65.44C412.909 64.6933 412.749 64.1227 412.429 63.728C412.12 63.3333 411.667 63.136 411.069 63.136C410.408 63.136 409.896 63.3707 409.533 63.84C409.181 64.3093 409.005 64.9653 409.005 65.808V66.016C409.005 66.8907 409.219 67.5467 409.645 67.984C410.083 68.4107 410.696 68.624 411.485 68.624C411.944 68.624 412.371 68.5653 412.765 68.448C413.171 68.32 413.555 68.1173 413.917 67.84L414.509 69.184C414.125 69.4933 413.667 69.7333 413.133 69.904C412.6 70.0747 412.035 70.16 411.437 70.16ZM332.641 90L337.745 78.72H339.473L344.641 90H342.545L341.169 86.832L342.001 87.392H335.233L336.097 86.832L334.721 90H332.641ZM338.593 80.928L336.337 86.272L335.921 85.776H341.297L340.961 86.272L338.657 80.928H338.593ZM345.729 90V78.224H347.729V90H345.729ZM349.901 90V81.92H351.901V90H349.901ZM349.789 80.4V78.448H352.013V80.4H349.789ZM353.752 90V88.688L358.808 82.944V83.424H353.752V81.92H360.616V83.232L355.512 89.024L355.496 88.496H360.792V90H353.752ZM365.986 90.16C365.154 90.16 364.434 89.9893 363.826 89.648C363.218 89.3067 362.743 88.8213 362.402 88.192C362.071 87.5627 361.906 86.816 361.906 85.952C361.906 85.088 362.071 84.3467 362.402 83.728C362.743 83.0987 363.218 82.6133 363.826 82.272C364.434 81.9307 365.154 81.76 365.986 81.76C366.818 81.76 367.538 81.9307 368.146 82.272C368.765 82.6133 369.239 83.0987 369.57 83.728C369.911 84.3467 370.082 85.088 370.082 85.952C370.082 86.816 369.911 87.5627 369.57 88.192C369.239 88.8213 368.765 89.3067 368.146 89.648C367.538 89.9893 366.818 90.16 365.986 90.16ZM365.986 88.624C366.615 88.624 367.117 88.4053 367.49 87.968C367.863 87.52 368.05 86.848 368.05 85.952C368.05 85.056 367.863 84.3893 367.49 83.952C367.117 83.5147 366.615 83.296 365.986 83.296C365.357 83.296 364.855 83.5147 364.482 83.952C364.109 84.3893 363.922 85.056 363.922 85.952C363.922 86.848 364.109 87.52 364.482 87.968C364.855 88.4053 365.357 88.624 365.986 88.624ZM371.807 90V83.936C371.807 83.6053 371.796 83.2693 371.775 82.928C371.753 82.5867 371.721 82.2507 371.679 81.92H373.615L373.775 83.52H373.583C373.839 82.9547 374.217 82.5227 374.719 82.224C375.22 81.9147 375.801 81.76 376.463 81.76C377.412 81.76 378.127 82.0267 378.607 82.56C379.087 83.0933 379.327 83.9253 379.327 85.056V90H377.327V85.152C377.327 84.5013 377.199 84.0373 376.943 83.76C376.697 83.472 376.324 83.328 375.823 83.328C375.204 83.328 374.713 83.52 374.351 83.904C373.988 84.288 373.807 84.8 373.807 85.44V90H371.807Z" fill="black"/>
<path d="M534.037 70V58.72H539.045C540.282 58.72 541.226 59.0187 541.877 59.616C542.528 60.2133 542.853 61.0347 542.853 62.08C542.853 63.1147 542.528 63.936 541.877 64.544C541.226 65.152 540.282 65.456 539.045 65.456H536.101V70H534.037ZM536.101 63.824H538.805C539.488 63.824 540 63.6747 540.341 63.376C540.682 63.0667 540.853 62.6347 540.853 62.08C540.853 61.5253 540.682 61.0987 540.341 60.8C540 60.4907 539.488 60.336 538.805 60.336H536.101V63.824ZM544.361 70V63.984C544.361 63.6427 544.35 63.296 544.329 62.944C544.318 62.592 544.292 62.2507 544.249 61.92H546.185L546.409 64.128H546.089C546.196 63.5947 546.372 63.152 546.617 62.8C546.873 62.448 547.182 62.1867 547.545 62.016C547.908 61.8453 548.302 61.76 548.729 61.76C548.921 61.76 549.076 61.7707 549.193 61.792C549.31 61.8027 549.428 61.8293 549.545 61.872L549.529 63.632C549.326 63.5467 549.15 63.4933 549.001 63.472C548.862 63.4507 548.686 63.44 548.473 63.44C548.014 63.44 547.625 63.536 547.305 63.728C546.996 63.92 546.761 64.1867 546.601 64.528C546.452 64.8693 546.377 65.2587 546.377 65.696V70H544.361ZM550.658 70V61.92H552.658V70H550.658ZM550.546 60.4V58.448H552.77V60.4H550.546ZM557.71 70.16C557.017 70.16 556.377 70.08 555.79 69.92C555.214 69.7493 554.729 69.5147 554.334 69.216L554.894 67.872C555.3 68.1493 555.748 68.3627 556.238 68.512C556.729 68.6613 557.225 68.736 557.726 68.736C558.26 68.736 558.654 68.6453 558.91 68.464C559.177 68.2827 559.31 68.0373 559.31 67.728C559.31 67.4827 559.225 67.2907 559.054 67.152C558.894 67.0027 558.633 66.8907 558.27 66.816L556.67 66.512C555.988 66.3627 555.465 66.1067 555.102 65.744C554.75 65.3813 554.574 64.9067 554.574 64.32C554.574 63.8187 554.708 63.376 554.974 62.992C555.252 62.608 555.641 62.3093 556.142 62.096C556.654 61.872 557.252 61.76 557.934 61.76C558.532 61.76 559.092 61.84 559.614 62C560.148 62.16 560.596 62.4 560.958 62.72L560.382 64.016C560.052 63.7493 559.673 63.5413 559.246 63.392C558.82 63.2427 558.404 63.168 557.998 63.168C557.444 63.168 557.038 63.2693 556.782 63.472C556.526 63.664 556.398 63.9147 556.398 64.224C556.398 64.4587 556.473 64.656 556.622 64.816C556.782 64.9653 557.028 65.0773 557.358 65.152L558.958 65.456C559.673 65.5947 560.212 65.84 560.574 66.192C560.948 66.5333 561.134 67.0027 561.134 67.6C561.134 68.1333 560.99 68.592 560.702 68.976C560.414 69.36 560.014 69.6533 559.502 69.856C558.99 70.0587 558.393 70.16 557.71 70.16ZM566.75 70.16C565.395 70.16 564.334 69.7867 563.566 69.04C562.798 68.2933 562.414 67.2693 562.414 65.968C562.414 65.1253 562.579 64.3893 562.91 63.76C563.24 63.1307 563.699 62.64 564.286 62.288C564.883 61.936 565.576 61.76 566.366 61.76C567.144 61.76 567.795 61.9253 568.318 62.256C568.84 62.5867 569.235 63.0507 569.502 63.648C569.779 64.2453 569.918 64.944 569.918 65.744V66.272H564.03V65.216H568.494L568.222 65.44C568.222 64.6933 568.062 64.1227 567.742 63.728C567.432 63.3333 566.979 63.136 566.382 63.136C565.72 63.136 565.208 63.3707 564.846 63.84C564.494 64.3093 564.318 64.9653 564.318 65.808V66.016C564.318 66.8907 564.531 67.5467 564.958 67.984C565.395 68.4107 566.008 68.624 566.798 68.624C567.256 68.624 567.683 68.5653 568.078 68.448C568.483 68.32 568.867 68.1173 569.23 67.84L569.822 69.184C569.438 69.4933 568.979 69.7333 568.446 69.904C567.912 70.0747 567.347 70.16 566.75 70.16ZM579.906 70.16C578.551 70.16 577.49 69.7867 576.722 69.04C575.954 68.2933 575.57 67.2693 575.57 65.968C575.57 65.1253 575.735 64.3893 576.066 63.76C576.397 63.1307 576.855 62.64 577.442 62.288C578.039 61.936 578.733 61.76 579.522 61.76C580.301 61.76 580.951 61.9253 581.474 62.256C581.997 62.5867 582.391 63.0507 582.658 63.648C582.935 64.2453 583.074 64.944 583.074 65.744V66.272H577.186V65.216H581.65L581.378 65.44C581.378 64.6933 581.218 64.1227 580.898 63.728C580.589 63.3333 580.135 63.136 579.538 63.136C578.877 63.136 578.365 63.3707 578.002 63.84C577.65 64.3093 577.474 64.9653 577.474 65.808V66.016C577.474 66.8907 577.687 67.5467 578.114 67.984C578.551 68.4107 579.165 68.624 579.954 68.624C580.413 68.624 580.839 68.5653 581.234 68.448C581.639 68.32 582.023 68.1173 582.386 67.84L582.978 69.184C582.594 69.4933 582.135 69.7333 581.602 69.904C581.069 70.0747 580.503 70.16 579.906 70.16ZM584.768 70V63.936C584.768 63.6053 584.757 63.2693 584.736 62.928C584.714 62.5867 584.682 62.2507 584.64 61.92H586.576L586.736 63.52H586.544C586.8 62.9547 587.178 62.5227 587.68 62.224C588.181 61.9147 588.762 61.76 589.424 61.76C590.373 61.76 591.088 62.0267 591.568 62.56C592.048 63.0933 592.288 63.9253 592.288 65.056V70H590.288V65.152C590.288 64.5013 590.16 64.0373 589.904 63.76C589.658 63.472 589.285 63.328 588.784 63.328C588.165 63.328 587.674 63.52 587.312 63.904C586.949 64.288 586.768 64.8 586.768 65.44V70H584.768ZM602.511 70.16C601.679 70.16 600.948 69.9893 600.319 69.648C599.7 69.3067 599.22 68.8213 598.879 68.192C598.538 67.552 598.367 66.7947 598.367 65.92C598.367 65.0453 598.538 64.2987 598.879 63.68C599.231 63.0613 599.716 62.5867 600.335 62.256C600.954 61.9253 601.679 61.76 602.511 61.76C603.044 61.76 603.562 61.8453 604.063 62.016C604.575 62.176 604.991 62.4107 605.311 62.72L604.703 64.112C604.415 63.8453 604.09 63.648 603.727 63.52C603.375 63.3813 603.028 63.312 602.687 63.312C601.972 63.312 601.412 63.536 601.007 63.984C600.612 64.432 600.415 65.0827 600.415 65.936C600.415 66.7893 600.612 67.4453 601.007 67.904C601.412 68.3627 601.972 68.592 602.687 68.592C603.018 68.592 603.359 68.528 603.711 68.4C604.074 68.272 604.404 68.0747 604.703 67.808L605.311 69.184C604.98 69.4933 604.559 69.7333 604.047 69.904C603.546 70.0747 603.034 70.16 602.511 70.16ZM606.861 70V58.224H608.861V63.536H608.637C608.883 62.96 609.261 62.5227 609.773 62.224C610.285 61.9147 610.872 61.76 611.533 61.76C612.493 61.76 613.208 62.032 613.677 62.576C614.147 63.1093 614.381 63.9253 614.381 65.024V70H612.381V65.12C612.381 64.4907 612.259 64.0373 612.013 63.76C611.779 63.472 611.4 63.328 610.877 63.328C610.269 63.328 609.779 63.52 609.405 63.904C609.043 64.2773 608.861 64.7787 608.861 65.408V70H606.861ZM619.622 70.16C618.918 70.16 618.299 69.9947 617.766 69.664C617.233 69.3227 616.817 68.8373 616.518 68.208C616.219 67.5787 616.07 66.8267 616.07 65.952C616.07 65.0773 616.219 64.3307 616.518 63.712C616.817 63.0827 617.233 62.6027 617.766 62.272C618.299 61.9307 618.918 61.76 619.622 61.76C620.305 61.76 620.902 61.9307 621.414 62.272C621.937 62.6027 622.283 63.0507 622.454 63.616H622.278L622.454 61.92H624.374C624.342 62.2507 624.31 62.5867 624.278 62.928C624.257 63.2693 624.246 63.6053 624.246 63.936V70H622.262L622.246 68.336H622.438C622.267 68.8907 621.921 69.3333 621.398 69.664C620.875 69.9947 620.283 70.16 619.622 70.16ZM620.182 68.624C620.811 68.624 621.318 68.4053 621.702 67.968C622.086 67.52 622.278 66.848 622.278 65.952C622.278 65.056 622.086 64.3893 621.702 63.952C621.318 63.5147 620.811 63.296 620.182 63.296C619.553 63.296 619.046 63.5147 618.662 63.952C618.278 64.3893 618.086 65.056 618.086 65.952C618.086 66.848 618.273 67.52 618.646 67.968C619.03 68.4053 619.542 68.624 620.182 68.624ZM626.408 70V63.984C626.408 63.6427 626.397 63.296 626.376 62.944C626.365 62.592 626.339 62.2507 626.296 61.92H628.232L628.456 64.128H628.136C628.243 63.5947 628.419 63.152 628.664 62.8C628.92 62.448 629.229 62.1867 629.592 62.016C629.955 61.8453 630.349 61.76 630.776 61.76C630.968 61.76 631.123 61.7707 631.24 61.792C631.357 61.8027 631.475 61.8293 631.592 61.872L631.576 63.632C631.373 63.5467 631.197 63.4933 631.048 63.472C630.909 63.4507 630.733 63.44 630.52 63.44C630.061 63.44 629.672 63.536 629.352 63.728C629.043 63.92 628.808 64.1867 628.648 64.528C628.499 64.8693 628.424 65.2587 628.424 65.696V70H626.408ZM636.324 73.584C635.578 73.584 634.9 73.504 634.292 73.344C633.695 73.184 633.162 72.9387 632.692 72.608L633.124 71.168C633.434 71.3707 633.754 71.536 634.084 71.664C634.415 71.792 634.756 71.888 635.108 71.952C635.46 72.016 635.818 72.048 636.18 72.048C636.927 72.048 637.482 71.8613 637.844 71.488C638.218 71.1253 638.404 70.6027 638.404 69.92V67.984H638.564C638.394 68.5387 638.047 68.9813 637.524 69.312C637.012 69.6427 636.42 69.808 635.748 69.808C635.023 69.808 634.388 69.648 633.844 69.328C633.311 68.9973 632.895 68.528 632.596 67.92C632.298 67.312 632.148 66.5973 632.148 65.776C632.148 64.9547 632.298 64.2453 632.596 63.648C632.895 63.04 633.311 62.576 633.844 62.256C634.388 61.9253 635.023 61.76 635.748 61.76C636.431 61.76 637.023 61.9253 637.524 62.256C638.036 62.576 638.378 63.0133 638.548 63.568L638.404 63.472L638.564 61.92H640.5C640.458 62.2507 640.426 62.5867 640.404 62.928C640.383 63.2693 640.372 63.6053 640.372 63.936V69.68C640.372 70.9493 640.026 71.9147 639.332 72.576C638.65 73.248 637.647 73.584 636.324 73.584ZM636.292 68.272C636.932 68.272 637.439 68.0587 637.812 67.632C638.196 67.1947 638.388 66.576 638.388 65.776C638.388 64.976 638.196 64.3627 637.812 63.936C637.439 63.5093 636.932 63.296 636.292 63.296C635.642 63.296 635.124 63.5093 634.74 63.936C634.356 64.3627 634.164 64.976 634.164 65.776C634.164 66.576 634.356 67.1947 634.74 67.632C635.124 68.0587 635.642 68.272 636.292 68.272ZM646.437 70.16C645.083 70.16 644.021 69.7867 643.253 69.04C642.485 68.2933 642.101 67.2693 642.101 65.968C642.101 65.1253 642.267 64.3893 642.597 63.76C642.928 63.1307 643.387 62.64 643.973 62.288C644.571 61.936 645.264 61.76 646.053 61.76C646.832 61.76 647.483 61.9253 648.005 62.256C648.528 62.5867 648.923 63.0507 649.189 63.648C649.467 64.2453 649.605 64.944 649.605 65.744V66.272H643.717V65.216H648.181L647.909 65.44C647.909 64.6933 647.749 64.1227 647.429 63.728C647.12 63.3333 646.667 63.136 646.069 63.136C645.408 63.136 644.896 63.3707 644.533 63.84C644.181 64.3093 644.005 64.9653 644.005 65.808V66.016C644.005 66.8907 644.219 67.5467 644.645 67.984C645.083 68.4107 645.696 68.624 646.485 68.624C646.944 68.624 647.371 68.5653 647.765 68.448C648.171 68.32 648.555 68.1173 648.917 67.84L649.509 69.184C649.125 69.4933 648.667 69.7333 648.133 69.904C647.6 70.0747 647.035 70.16 646.437 70.16ZM547.778 90.16C546.818 90.16 546.093 89.9093 545.602 89.408C545.112 88.9067 544.866 88.1547 544.866 87.152V83.424H543.314V81.92H544.866V79.856L546.866 79.344V81.92H549.026V83.424H546.866V87.024C546.866 87.5787 546.973 87.968 547.186 88.192C547.4 88.416 547.693 88.528 548.066 88.528C548.269 88.528 548.44 88.512 548.578 88.48C548.728 88.448 548.872 88.4053 549.01 88.352V89.936C548.829 90.0107 548.626 90.064 548.402 90.096C548.189 90.1387 547.981 90.16 547.778 90.16ZM550.369 90V83.984C550.369 83.6427 550.358 83.296 550.337 82.944C550.326 82.592 550.3 82.2507 550.257 81.92H552.193L552.417 84.128H552.097C552.204 83.5947 552.38 83.152 552.625 82.8C552.881 82.448 553.19 82.1867 553.553 82.016C553.916 81.8453 554.31 81.76 554.737 81.76C554.929 81.76 555.084 81.7707 555.201 81.792C555.318 81.8027 555.436 81.8293 555.553 81.872L555.537 83.632C555.334 83.5467 555.158 83.4933 555.009 83.472C554.87 83.4507 554.694 83.44 554.481 83.44C554.022 83.44 553.633 83.536 553.313 83.728C553.004 83.92 552.769 84.1867 552.609 84.528C552.46 84.8693 552.385 85.2587 552.385 85.696V90H550.369ZM559.708 90.16C559.004 90.16 558.385 89.9947 557.852 89.664C557.319 89.3227 556.903 88.8373 556.604 88.208C556.305 87.5787 556.156 86.8267 556.156 85.952C556.156 85.0773 556.305 84.3307 556.604 83.712C556.903 83.0827 557.319 82.6027 557.852 82.272C558.385 81.9307 559.004 81.76 559.708 81.76C560.391 81.76 560.988 81.9307 561.5 82.272C562.023 82.6027 562.369 83.0507 562.54 83.616H562.364L562.54 81.92H564.46C564.428 82.2507 564.396 82.5867 564.364 82.928C564.343 83.2693 564.332 83.6053 564.332 83.936V90H562.348L562.332 88.336H562.524C562.353 88.8907 562.007 89.3333 561.484 89.664C560.961 89.9947 560.369 90.16 559.708 90.16ZM560.268 88.624C560.897 88.624 561.404 88.4053 561.788 87.968C562.172 87.52 562.364 86.848 562.364 85.952C562.364 85.056 562.172 84.3893 561.788 83.952C561.404 83.5147 560.897 83.296 560.268 83.296C559.639 83.296 559.132 83.5147 558.748 83.952C558.364 84.3893 558.172 85.056 558.172 85.952C558.172 86.848 558.359 87.52 558.732 87.968C559.116 88.4053 559.628 88.624 560.268 88.624ZM566.51 90V83.936C566.51 83.6053 566.499 83.2693 566.478 82.928C566.457 82.5867 566.425 82.2507 566.382 81.92H568.318L568.478 83.52H568.286C568.542 82.9547 568.921 82.5227 569.422 82.224C569.923 81.9147 570.505 81.76 571.166 81.76C572.115 81.76 572.83 82.0267 573.31 82.56C573.79 83.0933 574.03 83.9253 574.03 85.056V90H572.03V85.152C572.03 84.5013 571.902 84.0373 571.646 83.76C571.401 83.472 571.027 83.328 570.526 83.328C569.907 83.328 569.417 83.52 569.054 83.904C568.691 84.288 568.51 84.8 568.51 85.44V90H566.51ZM579.031 90.16C578.337 90.16 577.697 90.08 577.111 89.92C576.535 89.7493 576.049 89.5147 575.655 89.216L576.215 87.872C576.62 88.1493 577.068 88.3627 577.559 88.512C578.049 88.6613 578.545 88.736 579.047 88.736C579.58 88.736 579.975 88.6453 580.231 88.464C580.497 88.2827 580.631 88.0373 580.631 87.728C580.631 87.4827 580.545 87.2907 580.375 87.152C580.215 87.0027 579.953 86.8907 579.591 86.816L577.991 86.512C577.308 86.3627 576.785 86.1067 576.423 85.744C576.071 85.3813 575.895 84.9067 575.895 84.32C575.895 83.8187 576.028 83.376 576.295 82.992C576.572 82.608 576.961 82.3093 577.463 82.096C577.975 81.872 578.572 81.76 579.255 81.76C579.852 81.76 580.412 81.84 580.935 82C581.468 82.16 581.916 82.4 582.279 82.72L581.703 84.016C581.372 83.7493 580.993 83.5413 580.567 83.392C580.14 83.2427 579.724 83.168 579.319 83.168C578.764 83.168 578.359 83.2693 578.103 83.472C577.847 83.664 577.719 83.9147 577.719 84.224C577.719 84.4587 577.793 84.656 577.943 84.816C578.103 84.9653 578.348 85.0773 578.679 85.152L580.279 85.456C580.993 85.5947 581.532 85.84 581.895 86.192C582.268 86.5333 582.455 87.0027 582.455 87.6C582.455 88.1333 582.311 88.592 582.023 88.976C581.735 89.36 581.335 89.6533 580.823 89.856C580.311 90.0587 579.713 90.16 579.031 90.16ZM584.166 93.456V83.936C584.166 83.6053 584.155 83.2693 584.134 82.928C584.113 82.5867 584.081 82.2507 584.038 81.92H585.974L586.15 83.616H585.974C586.134 83.0507 586.47 82.6027 586.982 82.272C587.505 81.9307 588.107 81.76 588.79 81.76C589.505 81.76 590.129 81.9307 590.662 82.272C591.195 82.6027 591.611 83.0827 591.91 83.712C592.209 84.3307 592.358 85.0773 592.358 85.952C592.358 86.8267 592.209 87.5787 591.91 88.208C591.611 88.8373 591.195 89.3227 590.662 89.664C590.129 89.9947 589.505 90.16 588.79 90.16C588.118 90.16 587.526 89.9947 587.014 89.664C586.502 89.3333 586.161 88.8907 585.99 88.336H586.166V93.456H584.166ZM588.23 88.624C588.87 88.624 589.382 88.4053 589.766 87.968C590.15 87.52 590.342 86.848 590.342 85.952C590.342 85.056 590.15 84.3893 589.766 83.952C589.382 83.5147 588.87 83.296 588.23 83.296C587.601 83.296 587.094 83.5147 586.71 83.952C586.326 84.3893 586.134 85.056 586.134 85.952C586.134 86.848 586.326 87.52 586.71 87.968C587.094 88.4053 587.601 88.624 588.23 88.624ZM597.736 90.16C596.904 90.16 596.184 89.9893 595.576 89.648C594.968 89.3067 594.493 88.8213 594.152 88.192C593.821 87.5627 593.656 86.816 593.656 85.952C593.656 85.088 593.821 84.3467 594.152 83.728C594.493 83.0987 594.968 82.6133 595.576 82.272C596.184 81.9307 596.904 81.76 597.736 81.76C598.568 81.76 599.288 81.9307 599.896 82.272C600.515 82.6133 600.989 83.0987 601.32 83.728C601.661 84.3467 601.832 85.088 601.832 85.952C601.832 86.816 601.661 87.5627 601.32 88.192C600.989 88.8213 600.515 89.3067 599.896 89.648C599.288 89.9893 598.568 90.16 597.736 90.16ZM597.736 88.624C598.365 88.624 598.867 88.4053 599.24 87.968C599.613 87.52 599.8 86.848 599.8 85.952C599.8 85.056 599.613 84.3893 599.24 83.952C598.867 83.5147 598.365 83.296 597.736 83.296C597.107 83.296 596.605 83.5147 596.232 83.952C595.859 84.3893 595.672 85.056 595.672 85.952C595.672 86.848 595.859 87.52 596.232 87.968C596.605 88.4053 597.107 88.624 597.736 88.624ZM603.541 90V83.984C603.541 83.6427 603.53 83.296 603.509 82.944C603.498 82.592 603.471 82.2507 603.429 81.92H605.365L605.589 84.128H605.269C605.375 83.5947 605.551 83.152 605.797 82.8C606.053 82.448 606.362 82.1867 606.725 82.016C607.087 81.8453 607.482 81.76 607.909 81.76C608.101 81.76 608.255 81.7707 608.373 81.792C608.49 81.8027 608.607 81.8293 608.725 81.872L608.709 83.632C608.506 83.5467 608.33 83.4933 608.181 83.472C608.042 83.4507 607.866 83.44 607.653 83.44C607.194 83.44 606.805 83.536 606.485 83.728C606.175 83.92 605.941 84.1867 605.781 84.528C605.631 84.8693 605.557 85.2587 605.557 85.696V90H603.541ZM613.747 90.16C612.787 90.16 612.062 89.9093 611.571 89.408C611.08 88.9067 610.835 88.1547 610.835 87.152V83.424H609.283V81.92H610.835V79.856L612.835 79.344V81.92H614.995V83.424H612.835V87.024C612.835 87.5787 612.942 87.968 613.155 88.192C613.368 88.416 613.662 88.528 614.035 88.528C614.238 88.528 614.408 88.512 614.547 88.48C614.696 88.448 614.84 88.4053 614.979 88.352V89.936C614.798 90.0107 614.595 90.064 614.371 90.096C614.158 90.1387 613.95 90.16 613.747 90.16ZM620.18 90.16C618.825 90.16 617.764 89.7867 616.996 89.04C616.228 88.2933 615.844 87.2693 615.844 85.968C615.844 85.1253 616.009 84.3893 616.34 83.76C616.67 83.1307 617.129 82.64 617.716 82.288C618.313 81.936 619.006 81.76 619.796 81.76C620.574 81.76 621.225 81.9253 621.748 82.256C622.27 82.5867 622.665 83.0507 622.932 83.648C623.209 84.2453 623.348 84.944 623.348 85.744V86.272H617.46V85.216H621.924L621.652 85.44C621.652 84.6933 621.492 84.1227 621.172 83.728C620.862 83.3333 620.409 83.136 619.812 83.136C619.15 83.136 618.638 83.3707 618.276 83.84C617.924 84.3093 617.748 84.9653 617.748 85.808V86.016C617.748 86.8907 617.961 87.5467 618.388 87.984C618.825 88.4107 619.438 88.624 620.228 88.624C620.686 88.624 621.113 88.5653 621.508 88.448C621.913 88.32 622.297 88.1173 622.66 87.84L623.252 89.184C622.868 89.4933 622.409 89.7333 621.876 89.904C621.342 90.0747 620.777 90.16 620.18 90.16ZM627.953 90.16C626.961 90.16 626.22 89.888 625.729 89.344C625.238 88.8 624.993 87.968 624.993 86.848V81.92H626.993V86.832C626.993 87.4293 627.116 87.872 627.361 88.16C627.606 88.4373 627.98 88.576 628.481 88.576C629.046 88.576 629.505 88.384 629.857 88C630.22 87.616 630.401 87.1093 630.401 86.48V81.92H632.401V90H630.449V88.352H630.673C630.438 88.928 630.081 89.376 629.601 89.696C629.132 90.0053 628.582 90.16 627.953 90.16ZM634.556 90V83.984C634.556 83.6427 634.546 83.296 634.524 82.944C634.514 82.592 634.487 82.2507 634.444 81.92H636.38L636.604 84.128H636.284C636.391 83.5947 636.567 83.152 636.812 82.8C637.068 82.448 637.378 82.1867 637.74 82.016C638.103 81.8453 638.498 81.76 638.924 81.76C639.116 81.76 639.271 81.7707 639.388 81.792C639.506 81.8027 639.623 81.8293 639.74 81.872L639.724 83.632C639.522 83.5467 639.346 83.4933 639.196 83.472C639.058 83.4507 638.882 83.44 638.668 83.44C638.21 83.44 637.82 83.536 637.5 83.728C637.191 83.92 636.956 84.1867 636.796 84.528C636.647 84.8693 636.572 85.2587 636.572 85.696V90H634.556Z" fill="black"/>
<path d="M772.537 71V59.72H777.545C778.782 59.72 779.726 60.0187 780.377 60.616C781.028 61.2133 781.353 62.0347 781.353 63.08C781.353 64.1147 781.028 64.936 780.377 65.544C779.726 66.152 778.782 66.456 777.545 66.456H774.601V71H772.537ZM774.601 64.824H777.305C777.988 64.824 778.5 64.6747 778.841 64.376C779.182 64.0667 779.353 63.6347 779.353 63.08C779.353 62.5253 779.182 62.0987 778.841 61.8C778.5 61.4907 777.988 61.336 777.305 61.336H774.601V64.824ZM782.861 71V64.984C782.861 64.6427 782.85 64.296 782.829 63.944C782.818 63.592 782.792 63.2507 782.749 62.92H784.685L784.909 65.128H784.589C784.696 64.5947 784.872 64.152 785.117 63.8C785.373 63.448 785.682 63.1867 786.045 63.016C786.408 62.8453 786.802 62.76 787.229 62.76C787.421 62.76 787.576 62.7707 787.693 62.792C787.81 62.8027 787.928 62.8293 788.045 62.872L788.029 64.632C787.826 64.5467 787.65 64.4933 787.501 64.472C787.362 64.4507 787.186 64.44 786.973 64.44C786.514 64.44 786.125 64.536 785.805 64.728C785.496 64.92 785.261 65.1867 785.101 65.528C784.952 65.8693 784.877 66.2587 784.877 66.696V71H782.861ZM789.158 71V62.92H791.158V71H789.158ZM789.046 61.4V59.448H791.27V61.4H789.046ZM796.21 71.16C795.517 71.16 794.877 71.08 794.29 70.92C793.714 70.7493 793.229 70.5147 792.834 70.216L793.394 68.872C793.8 69.1493 794.248 69.3627 794.738 69.512C795.229 69.6613 795.725 69.736 796.226 69.736C796.76 69.736 797.154 69.6453 797.41 69.464C797.677 69.2827 797.81 69.0373 797.81 68.728C797.81 68.4827 797.725 68.2907 797.554 68.152C797.394 68.0027 797.133 67.8907 796.77 67.816L795.17 67.512C794.488 67.3627 793.965 67.1067 793.602 66.744C793.25 66.3813 793.074 65.9067 793.074 65.32C793.074 64.8187 793.208 64.376 793.474 63.992C793.752 63.608 794.141 63.3093 794.642 63.096C795.154 62.872 795.752 62.76 796.434 62.76C797.032 62.76 797.592 62.84 798.114 63C798.648 63.16 799.096 63.4 799.458 63.72L798.882 65.016C798.552 64.7493 798.173 64.5413 797.746 64.392C797.32 64.2427 796.904 64.168 796.498 64.168C795.944 64.168 795.538 64.2693 795.282 64.472C795.026 64.664 794.898 64.9147 794.898 65.224C794.898 65.4587 794.973 65.656 795.122 65.816C795.282 65.9653 795.528 66.0773 795.858 66.152L797.458 66.456C798.173 66.5947 798.712 66.84 799.074 67.192C799.448 67.5333 799.634 68.0027 799.634 68.6C799.634 69.1333 799.49 69.592 799.202 69.976C798.914 70.36 798.514 70.6533 798.002 70.856C797.49 71.0587 796.893 71.16 796.21 71.16ZM805.25 71.16C803.895 71.16 802.834 70.7867 802.066 70.04C801.298 69.2933 800.914 68.2693 800.914 66.968C800.914 66.1253 801.079 65.3893 801.41 64.76C801.74 64.1307 802.199 63.64 802.786 63.288C803.383 62.936 804.076 62.76 804.866 62.76C805.644 62.76 806.295 62.9253 806.818 63.256C807.34 63.5867 807.735 64.0507 808.002 64.648C808.279 65.2453 808.418 65.944 808.418 66.744V67.272H802.53V66.216H806.994L806.722 66.44C806.722 65.6933 806.562 65.1227 806.242 64.728C805.932 64.3333 805.479 64.136 804.882 64.136C804.22 64.136 803.708 64.3707 803.346 64.84C802.994 65.3093 802.818 65.9653 802.818 66.808V67.016C802.818 67.8907 803.031 68.5467 803.458 68.984C803.895 69.4107 804.508 69.624 805.298 69.624C805.756 69.624 806.183 69.5653 806.578 69.448C806.983 69.32 807.367 69.1173 807.73 68.84L808.322 70.184C807.938 70.4933 807.479 70.7333 806.946 70.904C806.412 71.0747 805.847 71.16 805.25 71.16ZM818.406 71.16C817.051 71.16 815.99 70.7867 815.222 70.04C814.454 69.2933 814.07 68.2693 814.07 66.968C814.07 66.1253 814.235 65.3893 814.566 64.76C814.897 64.1307 815.355 63.64 815.942 63.288C816.539 62.936 817.233 62.76 818.022 62.76C818.801 62.76 819.451 62.9253 819.974 63.256C820.497 63.5867 820.891 64.0507 821.158 64.648C821.435 65.2453 821.574 65.944 821.574 66.744V67.272H815.686V66.216H820.15L819.878 66.44C819.878 65.6933 819.718 65.1227 819.398 64.728C819.089 64.3333 818.635 64.136 818.038 64.136C817.377 64.136 816.865 64.3707 816.502 64.84C816.15 65.3093 815.974 65.9653 815.974 66.808V67.016C815.974 67.8907 816.187 68.5467 816.614 68.984C817.051 69.4107 817.665 69.624 818.454 69.624C818.913 69.624 819.339 69.5653 819.734 69.448C820.139 69.32 820.523 69.1173 820.886 68.84L821.478 70.184C821.094 70.4933 820.635 70.7333 820.102 70.904C819.569 71.0747 819.003 71.16 818.406 71.16ZM823.268 71V64.936C823.268 64.6053 823.257 64.2693 823.236 63.928C823.214 63.5867 823.182 63.2507 823.14 62.92H825.076L825.236 64.52H825.044C825.3 63.9547 825.678 63.5227 826.18 63.224C826.681 62.9147 827.262 62.76 827.924 62.76C828.873 62.76 829.588 63.0267 830.068 63.56C830.548 64.0933 830.788 64.9253 830.788 66.056V71H828.788V66.152C828.788 65.5013 828.66 65.0373 828.404 64.76C828.158 64.472 827.785 64.328 827.284 64.328C826.665 64.328 826.174 64.52 825.812 64.904C825.449 65.288 825.268 65.8 825.268 66.44V71H823.268ZM841.011 71.16C840.179 71.16 839.448 70.9893 838.819 70.648C838.2 70.3067 837.72 69.8213 837.379 69.192C837.038 68.552 836.867 67.7947 836.867 66.92C836.867 66.0453 837.038 65.2987 837.379 64.68C837.731 64.0613 838.216 63.5867 838.835 63.256C839.454 62.9253 840.179 62.76 841.011 62.76C841.544 62.76 842.062 62.8453 842.563 63.016C843.075 63.176 843.491 63.4107 843.811 63.72L843.203 65.112C842.915 64.8453 842.59 64.648 842.227 64.52C841.875 64.3813 841.528 64.312 841.187 64.312C840.472 64.312 839.912 64.536 839.507 64.984C839.112 65.432 838.915 66.0827 838.915 66.936C838.915 67.7893 839.112 68.4453 839.507 68.904C839.912 69.3627 840.472 69.592 841.187 69.592C841.518 69.592 841.859 69.528 842.211 69.4C842.574 69.272 842.904 69.0747 843.203 68.808L843.811 70.184C843.48 70.4933 843.059 70.7333 842.547 70.904C842.046 71.0747 841.534 71.16 841.011 71.16ZM845.361 71V59.224H847.361V64.536H847.137C847.383 63.96 847.761 63.5227 848.273 63.224C848.785 62.9147 849.372 62.76 850.033 62.76C850.993 62.76 851.708 63.032 852.177 63.576C852.647 64.1093 852.881 64.9253 852.881 66.024V71H850.881V66.12C850.881 65.4907 850.759 65.0373 850.513 64.76C850.279 64.472 849.9 64.328 849.377 64.328C848.769 64.328 848.279 64.52 847.905 64.904C847.543 65.2773 847.361 65.7787 847.361 66.408V71H845.361ZM858.122 71.16C857.418 71.16 856.799 70.9947 856.266 70.664C855.733 70.3227 855.317 69.8373 855.018 69.208C854.719 68.5787 854.57 67.8267 854.57 66.952C854.57 66.0773 854.719 65.3307 855.018 64.712C855.317 64.0827 855.733 63.6027 856.266 63.272C856.799 62.9307 857.418 62.76 858.122 62.76C858.805 62.76 859.402 62.9307 859.914 63.272C860.437 63.6027 860.783 64.0507 860.954 64.616H860.778L860.954 62.92H862.874C862.842 63.2507 862.81 63.5867 862.778 63.928C862.757 64.2693 862.746 64.6053 862.746 64.936V71H860.762L860.746 69.336H860.938C860.767 69.8907 860.421 70.3333 859.898 70.664C859.375 70.9947 858.783 71.16 858.122 71.16ZM858.682 69.624C859.311 69.624 859.818 69.4053 860.202 68.968C860.586 68.52 860.778 67.848 860.778 66.952C860.778 66.056 860.586 65.3893 860.202 64.952C859.818 64.5147 859.311 64.296 858.682 64.296C858.053 64.296 857.546 64.5147 857.162 64.952C856.778 65.3893 856.586 66.056 856.586 66.952C856.586 67.848 856.773 68.52 857.146 68.968C857.53 69.4053 858.042 69.624 858.682 69.624ZM864.908 71V64.984C864.908 64.6427 864.897 64.296 864.876 63.944C864.865 63.592 864.839 63.2507 864.796 62.92H866.732L866.956 65.128H866.636C866.743 64.5947 866.919 64.152 867.164 63.8C867.42 63.448 867.729 63.1867 868.092 63.016C868.455 62.8453 868.849 62.76 869.276 62.76C869.468 62.76 869.623 62.7707 869.74 62.792C869.857 62.8027 869.975 62.8293 870.092 62.872L870.076 64.632C869.873 64.5467 869.697 64.4933 869.548 64.472C869.409 64.4507 869.233 64.44 869.02 64.44C868.561 64.44 868.172 64.536 867.852 64.728C867.543 64.92 867.308 65.1867 867.148 65.528C866.999 65.8693 866.924 66.2587 866.924 66.696V71H864.908ZM874.824 74.584C874.078 74.584 873.4 74.504 872.792 74.344C872.195 74.184 871.662 73.9387 871.192 73.608L871.624 72.168C871.934 72.3707 872.254 72.536 872.584 72.664C872.915 72.792 873.256 72.888 873.608 72.952C873.96 73.016 874.318 73.048 874.68 73.048C875.427 73.048 875.982 72.8613 876.344 72.488C876.718 72.1253 876.904 71.6027 876.904 70.92V68.984H877.064C876.894 69.5387 876.547 69.9813 876.024 70.312C875.512 70.6427 874.92 70.808 874.248 70.808C873.523 70.808 872.888 70.648 872.344 70.328C871.811 69.9973 871.395 69.528 871.096 68.92C870.798 68.312 870.648 67.5973 870.648 66.776C870.648 65.9547 870.798 65.2453 871.096 64.648C871.395 64.04 871.811 63.576 872.344 63.256C872.888 62.9253 873.523 62.76 874.248 62.76C874.931 62.76 875.523 62.9253 876.024 63.256C876.536 63.576 876.878 64.0133 877.048 64.568L876.904 64.472L877.064 62.92H879C878.958 63.2507 878.926 63.5867 878.904 63.928C878.883 64.2693 878.872 64.6053 878.872 64.936V70.68C878.872 71.9493 878.526 72.9147 877.832 73.576C877.15 74.248 876.147 74.584 874.824 74.584ZM874.792 69.272C875.432 69.272 875.939 69.0587 876.312 68.632C876.696 68.1947 876.888 67.576 876.888 66.776C876.888 65.976 876.696 65.3627 876.312 64.936C875.939 64.5093 875.432 64.296 874.792 64.296C874.142 64.296 873.624 64.5093 873.24 64.936C872.856 65.3627 872.664 65.976 872.664 66.776C872.664 67.576 872.856 68.1947 873.24 68.632C873.624 69.0587 874.142 69.272 874.792 69.272ZM884.937 71.16C883.583 71.16 882.521 70.7867 881.753 70.04C880.985 69.2933 880.601 68.2693 880.601 66.968C880.601 66.1253 880.767 65.3893 881.097 64.76C881.428 64.1307 881.887 63.64 882.473 63.288C883.071 62.936 883.764 62.76 884.553 62.76C885.332 62.76 885.983 62.9253 886.505 63.256C887.028 63.5867 887.423 64.0507 887.689 64.648C887.967 65.2453 888.105 65.944 888.105 66.744V67.272H882.217V66.216H886.681L886.409 66.44C886.409 65.6933 886.249 65.1227 885.929 64.728C885.62 64.3333 885.167 64.136 884.569 64.136C883.908 64.136 883.396 64.3707 883.033 64.84C882.681 65.3093 882.505 65.9653 882.505 66.808V67.016C882.505 67.8907 882.719 68.5467 883.145 68.984C883.583 69.4107 884.196 69.624 884.985 69.624C885.444 69.624 885.871 69.5653 886.265 69.448C886.671 69.32 887.055 69.1173 887.417 68.84L888.009 70.184C887.625 70.4933 887.167 70.7333 886.633 70.904C886.1 71.0747 885.535 71.16 884.937 71.16ZM751.721 94.456V84.936C751.721 84.6053 751.71 84.2693 751.689 83.928C751.667 83.5867 751.635 83.2507 751.593 82.92H753.529L753.705 84.616H753.529C753.689 84.0507 754.025 83.6027 754.537 83.272C755.059 82.9307 755.662 82.76 756.345 82.76C757.059 82.76 757.683 82.9307 758.217 83.272C758.75 83.6027 759.166 84.0827 759.465 84.712C759.763 85.3307 759.913 86.0773 759.913 86.952C759.913 87.8267 759.763 88.5787 759.465 89.208C759.166 89.8373 758.75 90.3227 758.217 90.664C757.683 90.9947 757.059 91.16 756.345 91.16C755.673 91.16 755.081 90.9947 754.569 90.664C754.057 90.3333 753.715 89.8907 753.545 89.336H753.721V94.456H751.721ZM755.785 89.624C756.425 89.624 756.937 89.4053 757.321 88.968C757.705 88.52 757.897 87.848 757.897 86.952C757.897 86.056 757.705 85.3893 757.321 84.952C756.937 84.5147 756.425 84.296 755.785 84.296C755.155 84.296 754.649 84.5147 754.265 84.952C753.881 85.3893 753.689 86.056 753.689 86.952C753.689 87.848 753.881 88.52 754.265 88.968C754.649 89.4053 755.155 89.624 755.785 89.624ZM761.643 91V79.224H763.643V91H761.643ZM768.935 91.16C768.231 91.16 767.612 90.9947 767.079 90.664C766.545 90.3227 766.129 89.8373 765.831 89.208C765.532 88.5787 765.383 87.8267 765.383 86.952C765.383 86.0773 765.532 85.3307 765.831 84.712C766.129 84.0827 766.545 83.6027 767.079 83.272C767.612 82.9307 768.231 82.76 768.935 82.76C769.617 82.76 770.215 82.9307 770.727 83.272C771.249 83.6027 771.596 84.0507 771.767 84.616H771.591L771.767 82.92H773.687C773.655 83.2507 773.623 83.5867 773.591 83.928C773.569 84.2693 773.559 84.6053 773.559 84.936V91H771.575L771.559 89.336H771.751C771.58 89.8907 771.233 90.3333 770.711 90.664C770.188 90.9947 769.596 91.16 768.935 91.16ZM769.495 89.624C770.124 89.624 770.631 89.4053 771.015 88.968C771.399 88.52 771.591 87.848 771.591 86.952C771.591 86.056 771.399 85.3893 771.015 84.952C770.631 84.5147 770.124 84.296 769.495 84.296C768.865 84.296 768.359 84.5147 767.975 84.952C767.591 85.3893 767.399 86.056 767.399 86.952C767.399 87.848 767.585 88.52 767.959 88.968C768.343 89.4053 768.855 89.624 769.495 89.624ZM779.192 91.16C778.232 91.16 777.507 90.9093 777.016 90.408C776.526 89.9067 776.28 89.1547 776.28 88.152V84.424H774.728V82.92H776.28V80.856L778.28 80.344V82.92H780.44V84.424H778.28V88.024C778.28 88.5787 778.387 88.968 778.6 89.192C778.814 89.416 779.107 89.528 779.48 89.528C779.683 89.528 779.854 89.512 779.992 89.48C780.142 89.448 780.286 89.4053 780.424 89.352V90.936C780.243 91.0107 780.04 91.064 779.816 91.096C779.603 91.1387 779.395 91.16 779.192 91.16ZM785.625 91.16C784.27 91.16 783.209 90.7867 782.441 90.04C781.673 89.2933 781.289 88.2693 781.289 86.968C781.289 86.1253 781.454 85.3893 781.785 84.76C782.115 84.1307 782.574 83.64 783.161 83.288C783.758 82.936 784.451 82.76 785.241 82.76C786.019 82.76 786.67 82.9253 787.193 83.256C787.715 83.5867 788.11 84.0507 788.377 84.648C788.654 85.2453 788.793 85.944 788.793 86.744V87.272H782.905V86.216H787.369L787.097 86.44C787.097 85.6933 786.937 85.1227 786.617 84.728C786.307 84.3333 785.854 84.136 785.257 84.136C784.595 84.136 784.083 84.3707 783.721 84.84C783.369 85.3093 783.193 85.9653 783.193 86.808V87.016C783.193 87.8907 783.406 88.5467 783.833 88.984C784.27 89.4107 784.883 89.624 785.673 89.624C786.131 89.624 786.558 89.5653 786.953 89.448C787.358 89.32 787.742 89.1173 788.105 88.84L788.697 90.184C788.313 90.4933 787.854 90.7333 787.321 90.904C786.787 91.0747 786.222 91.16 785.625 91.16ZM790.999 91V84.424H789.447V82.92H791.559L790.999 83.432V82.2C790.999 81.1973 791.255 80.44 791.767 79.928C792.29 79.416 793.053 79.16 794.055 79.16C794.29 79.16 794.535 79.176 794.791 79.208C795.058 79.24 795.287 79.2987 795.479 79.384V80.952C795.341 80.8987 795.175 80.856 794.983 80.824C794.791 80.792 794.605 80.776 794.423 80.776C794.146 80.776 793.895 80.8293 793.671 80.936C793.458 81.0427 793.287 81.208 793.159 81.432C793.042 81.6453 792.983 81.9333 792.983 82.296V83.272L792.695 82.92H795.111V84.424H792.999V91H790.999ZM799.791 91.16C798.959 91.16 798.239 90.9893 797.631 90.648C797.023 90.3067 796.548 89.8213 796.207 89.192C795.876 88.5627 795.711 87.816 795.711 86.952C795.711 86.088 795.876 85.3467 796.207 84.728C796.548 84.0987 797.023 83.6133 797.631 83.272C798.239 82.9307 798.959 82.76 799.791 82.76C800.623 82.76 801.343 82.9307 801.951 83.272C802.569 83.6133 803.044 84.0987 803.375 84.728C803.716 85.3467 803.887 86.088 803.887 86.952C803.887 87.816 803.716 88.5627 803.375 89.192C803.044 89.8213 802.569 90.3067 801.951 90.648C801.343 90.9893 800.623 91.16 799.791 91.16ZM799.791 89.624C800.42 89.624 800.921 89.4053 801.295 88.968C801.668 88.52 801.855 87.848 801.855 86.952C801.855 86.056 801.668 85.3893 801.295 84.952C800.921 84.5147 800.42 84.296 799.791 84.296C799.161 84.296 798.66 84.5147 798.287 84.952C797.913 85.3893 797.727 86.056 797.727 86.952C797.727 87.848 797.913 88.52 798.287 88.968C798.66 89.4053 799.161 89.624 799.791 89.624ZM805.595 91V84.984C805.595 84.6427 805.585 84.296 805.563 83.944C805.553 83.592 805.526 83.2507 805.483 82.92H807.419L807.643 85.128H807.323C807.43 84.5947 807.606 84.152 807.851 83.8C808.107 83.448 808.417 83.1867 808.779 83.016C809.142 82.8453 809.537 82.76 809.963 82.76C810.155 82.76 810.31 82.7707 810.427 82.792C810.545 82.8027 810.662 82.8293 810.779 82.872L810.763 84.632C810.561 84.5467 810.385 84.4933 810.235 84.472C810.097 84.4507 809.921 84.44 809.707 84.44C809.249 84.44 808.859 84.536 808.539 84.728C808.23 84.92 807.995 85.1867 807.835 85.528C807.686 85.8693 807.611 86.2587 807.611 86.696V91H805.595ZM811.893 91V84.936C811.893 84.6053 811.882 84.2693 811.861 83.928C811.839 83.5867 811.807 83.2507 811.765 82.92H813.701L813.861 84.52H813.669C813.893 83.9653 814.234 83.5333 814.693 83.224C815.162 82.9147 815.717 82.76 816.357 82.76C816.997 82.76 817.525 82.9147 817.941 83.224C818.367 83.5227 818.666 83.992 818.837 84.632H818.581C818.805 84.056 819.173 83.6027 819.685 83.272C820.197 82.9307 820.783 82.76 821.445 82.76C822.351 82.76 823.029 83.0267 823.477 83.56C823.925 84.0933 824.149 84.9253 824.149 86.056V91H822.149V86.136C822.149 85.496 822.042 85.0373 821.829 84.76C821.615 84.472 821.274 84.328 820.805 84.328C820.25 84.328 819.813 84.5253 819.493 84.92C819.173 85.304 819.013 85.8267 819.013 86.488V91H817.013V86.136C817.013 85.496 816.906 85.0373 816.693 84.76C816.479 84.472 816.138 84.328 815.669 84.328C815.114 84.328 814.677 84.5253 814.357 84.92C814.047 85.304 813.893 85.8267 813.893 86.488V91H811.893ZM830.187 91.16C828.833 91.16 827.771 90.7867 827.003 90.04C826.235 89.2933 825.851 88.2693 825.851 86.968C825.851 86.1253 826.017 85.3893 826.347 84.76C826.678 84.1307 827.137 83.64 827.723 83.288C828.321 82.936 829.014 82.76 829.803 82.76C830.582 82.76 831.233 82.9253 831.755 83.256C832.278 83.5867 832.673 84.0507 832.939 84.648C833.217 85.2453 833.355 85.944 833.355 86.744V87.272H827.467V86.216H831.931L831.659 86.44C831.659 85.6933 831.499 85.1227 831.179 84.728C830.87 84.3333 830.417 84.136 829.819 84.136C829.158 84.136 828.646 84.3707 828.283 84.84C827.931 85.3093 827.755 85.9653 827.755 86.808V87.016C827.755 87.8907 827.969 88.5467 828.395 88.984C828.833 89.4107 829.446 89.624 830.235 89.624C830.694 89.624 831.121 89.5653 831.515 89.448C831.921 89.32 832.305 89.1173 832.667 88.84L833.259 90.184C832.875 90.4933 832.417 90.7333 831.883 90.904C831.35 91.0747 830.785 91.16 830.187 91.16ZM839.424 91V84.984C839.424 84.6427 839.413 84.296 839.392 83.944C839.381 83.592 839.354 83.2507 839.312 82.92H841.248L841.472 85.128H841.152C841.258 84.5947 841.434 84.152 841.68 83.8C841.936 83.448 842.245 83.1867 842.608 83.016C842.97 82.8453 843.365 82.76 843.792 82.76C843.984 82.76 844.138 82.7707 844.256 82.792C844.373 82.8027 844.49 82.8293 844.608 82.872L844.592 84.632C844.389 84.5467 844.213 84.4933 844.064 84.472C843.925 84.4507 843.749 84.44 843.536 84.44C843.077 84.44 842.688 84.536 842.368 84.728C842.058 84.92 841.824 85.1867 841.664 85.528C841.514 85.8693 841.44 86.2587 841.44 86.696V91H839.424ZM849.5 91.16C848.145 91.16 847.084 90.7867 846.316 90.04C845.548 89.2933 845.164 88.2693 845.164 86.968C845.164 86.1253 845.329 85.3893 845.66 84.76C845.99 84.1307 846.449 83.64 847.036 83.288C847.633 82.936 848.326 82.76 849.116 82.76C849.894 82.76 850.545 82.9253 851.068 83.256C851.59 83.5867 851.985 84.0507 852.252 84.648C852.529 85.2453 852.668 85.944 852.668 86.744V87.272H846.78V86.216H851.244L850.972 86.44C850.972 85.6933 850.812 85.1227 850.492 84.728C850.182 84.3333 849.729 84.136 849.132 84.136C848.47 84.136 847.958 84.3707 847.596 84.84C847.244 85.3093 847.068 85.9653 847.068 86.808V87.016C847.068 87.8907 847.281 88.5467 847.708 88.984C848.145 89.4107 848.758 89.624 849.548 89.624C850.006 89.624 850.433 89.5653 850.828 89.448C851.233 89.32 851.617 89.1173 851.98 88.84L852.572 90.184C852.188 90.4933 851.729 90.7333 851.196 90.904C850.662 91.0747 850.097 91.16 849.5 91.16ZM848.444 82.136L850.092 78.888H852.06L849.788 82.136H848.444ZM858.105 94.584C857.359 94.584 856.681 94.504 856.073 94.344C855.476 94.184 854.943 93.9387 854.473 93.608L854.905 92.168C855.215 92.3707 855.535 92.536 855.865 92.664C856.196 92.792 856.537 92.888 856.889 92.952C857.241 93.016 857.599 93.048 857.961 93.048C858.708 93.048 859.263 92.8613 859.625 92.488C859.999 92.1253 860.185 91.6027 860.185 90.92V88.984H860.345C860.175 89.5387 859.828 89.9813 859.305 90.312C858.793 90.6427 858.201 90.808 857.529 90.808C856.804 90.808 856.169 90.648 855.625 90.328C855.092 89.9973 854.676 89.528 854.377 88.92C854.079 88.312 853.929 87.5973 853.929 86.776C853.929 85.9547 854.079 85.2453 854.377 84.648C854.676 84.04 855.092 83.576 855.625 83.256C856.169 82.9253 856.804 82.76 857.529 82.76C858.212 82.76 858.804 82.9253 859.305 83.256C859.817 83.576 860.159 84.0133 860.329 84.568L860.185 84.472L860.345 82.92H862.281C862.239 83.2507 862.207 83.5867 862.185 83.928C862.164 84.2693 862.153 84.6053 862.153 84.936V90.68C862.153 91.9493 861.807 92.9147 861.113 93.576C860.431 94.248 859.428 94.584 858.105 94.584ZM858.073 89.272C858.713 89.272 859.22 89.0587 859.593 88.632C859.977 88.1947 860.169 87.576 860.169 86.776C860.169 85.976 859.977 85.3627 859.593 84.936C859.22 84.5093 858.713 84.296 858.073 84.296C857.423 84.296 856.905 84.5093 856.521 84.936C856.137 85.3627 855.945 85.976 855.945 86.776C855.945 87.576 856.137 88.1947 856.521 88.632C856.905 89.0587 857.423 89.272 858.073 89.272ZM864.315 91V82.92H866.315V91H864.315ZM864.203 81.4V79.448H866.427V81.4H864.203ZM872.134 91.16C871.302 91.16 870.582 90.9893 869.974 90.648C869.366 90.3067 868.892 89.8213 868.55 89.192C868.22 88.5627 868.054 87.816 868.054 86.952C868.054 86.088 868.22 85.3467 868.55 84.728C868.892 84.0987 869.366 83.6133 869.974 83.272C870.582 82.9307 871.302 82.76 872.134 82.76C872.966 82.76 873.686 82.9307 874.294 83.272C874.913 83.6133 875.388 84.0987 875.718 84.728C876.06 85.3467 876.23 86.088 876.23 86.952C876.23 87.816 876.06 88.5627 875.718 89.192C875.388 89.8213 874.913 90.3067 874.294 90.648C873.686 90.9893 872.966 91.16 872.134 91.16ZM872.134 89.624C872.764 89.624 873.265 89.4053 873.638 88.968C874.012 88.52 874.198 87.848 874.198 86.952C874.198 86.056 874.012 85.3893 873.638 84.952C873.265 84.5147 872.764 84.296 872.134 84.296C871.505 84.296 871.004 84.5147 870.63 84.952C870.257 85.3893 870.07 86.056 870.07 86.952C870.07 87.848 870.257 88.52 870.63 88.968C871.004 89.4053 871.505 89.624 872.134 89.624ZM877.955 91V84.936C877.955 84.6053 877.945 84.2693 877.923 83.928C877.902 83.5867 877.87 83.2507 877.827 82.92H879.763L879.923 84.52H879.731C879.987 83.9547 880.366 83.5227 880.867 83.224C881.369 82.9147 881.95 82.76 882.611 82.76C883.561 82.76 884.275 83.0267 884.755 83.56C885.235 84.0933 885.475 84.9253 885.475 86.056V91H883.475V86.152C883.475 85.5013 883.347 85.0373 883.091 84.76C882.846 84.472 882.473 84.328 881.971 84.328C881.353 84.328 880.862 84.52 880.499 84.904C880.137 85.288 879.955 85.8 879.955 86.44V91H877.955ZM890.716 91.16C890.012 91.16 889.393 90.9947 888.86 90.664C888.326 90.3227 887.91 89.8373 887.612 89.208C887.313 88.5787 887.164 87.8267 887.164 86.952C887.164 86.0773 887.313 85.3307 887.612 84.712C887.91 84.0827 888.326 83.6027 888.86 83.272C889.393 82.9307 890.012 82.76 890.716 82.76C891.398 82.76 891.996 82.9307 892.508 83.272C893.03 83.6027 893.377 84.0507 893.548 84.616H893.372L893.548 82.92H895.468C895.436 83.2507 895.404 83.5867 895.372 83.928C895.35 84.2693 895.34 84.6053 895.34 84.936V91H893.356L893.34 89.336H893.532C893.361 89.8907 893.014 90.3333 892.492 90.664C891.969 90.9947 891.377 91.16 890.716 91.16ZM891.276 89.624C891.905 89.624 892.412 89.4053 892.796 88.968C893.18 88.52 893.372 87.848 893.372 86.952C893.372 86.056 893.18 85.3893 892.796 84.952C892.412 84.5147 891.905 84.296 891.276 84.296C890.646 84.296 890.14 84.5147 889.756 84.952C889.372 85.3893 889.18 86.056 889.18 86.952C889.18 87.848 889.366 88.52 889.74 88.968C890.124 89.4053 890.636 89.624 891.276 89.624ZM897.518 91V79.224H899.518V91H897.518ZM905.594 91.16C904.239 91.16 903.178 90.7867 902.41 90.04C901.642 89.2933 901.258 88.2693 901.258 86.968C901.258 86.1253 901.423 85.3893 901.754 84.76C902.084 84.1307 902.543 83.64 903.13 83.288C903.727 82.936 904.42 82.76 905.21 82.76C905.988 82.76 906.639 82.9253 907.162 83.256C907.684 83.5867 908.079 84.0507 908.346 84.648C908.623 85.2453 908.762 85.944 908.762 86.744V87.272H902.874V86.216H907.338L907.066 86.44C907.066 85.6933 906.906 85.1227 906.586 84.728C906.276 84.3333 905.823 84.136 905.226 84.136C904.564 84.136 904.052 84.3707 903.69 84.84C903.338 85.3093 903.162 85.9653 903.162 86.808V87.016C903.162 87.8907 903.375 88.5467 903.802 88.984C904.239 89.4107 904.852 89.624 905.642 89.624C906.1 89.624 906.527 89.5653 906.922 89.448C907.327 89.32 907.711 89.1173 908.074 88.84L908.666 90.184C908.282 90.4933 907.823 90.7333 907.29 90.904C906.756 91.0747 906.191 91.16 905.594 91.16Z" fill="black"/>
<path d="M1005.54 71V59.72H1010.55C1011.78 59.72 1012.73 60.0187 1013.38 60.616C1014.03 61.2133 1014.35 62.0347 1014.35 63.08C1014.35 64.1147 1014.03 64.936 1013.38 65.544C1012.73 66.152 1011.78 66.456 1010.55 66.456H1007.6V71H1005.54ZM1007.6 64.824H1010.31C1010.99 64.824 1011.5 64.6747 1011.84 64.376C1012.18 64.0667 1012.35 63.6347 1012.35 63.08C1012.35 62.5253 1012.18 62.0987 1011.84 61.8C1011.5 61.4907 1010.99 61.336 1010.31 61.336H1007.6V64.824ZM1015.86 71V64.984C1015.86 64.6427 1015.85 64.296 1015.83 63.944C1015.82 63.592 1015.79 63.2507 1015.75 62.92H1017.69L1017.91 65.128H1017.59C1017.7 64.5947 1017.87 64.152 1018.12 63.8C1018.37 63.448 1018.68 63.1867 1019.05 63.016C1019.41 62.8453 1019.8 62.76 1020.23 62.76C1020.42 62.76 1020.58 62.7707 1020.69 62.792C1020.81 62.8027 1020.93 62.8293 1021.05 62.872L1021.03 64.632C1020.83 64.5467 1020.65 64.4933 1020.5 64.472C1020.36 64.4507 1020.19 64.44 1019.97 64.44C1019.51 64.44 1019.13 64.536 1018.81 64.728C1018.5 64.92 1018.26 65.1867 1018.1 65.528C1017.95 65.8693 1017.88 66.2587 1017.88 66.696V71H1015.86ZM1022.16 71V62.92H1024.16V71H1022.16ZM1022.05 61.4V59.448H1024.27V61.4H1022.05ZM1029.21 71.16C1028.52 71.16 1027.88 71.08 1027.29 70.92C1026.71 70.7493 1026.23 70.5147 1025.83 70.216L1026.39 68.872C1026.8 69.1493 1027.25 69.3627 1027.74 69.512C1028.23 69.6613 1028.72 69.736 1029.23 69.736C1029.76 69.736 1030.15 69.6453 1030.41 69.464C1030.68 69.2827 1030.81 69.0373 1030.81 68.728C1030.81 68.4827 1030.72 68.2907 1030.55 68.152C1030.39 68.0027 1030.13 67.8907 1029.77 67.816L1028.17 67.512C1027.49 67.3627 1026.96 67.1067 1026.6 66.744C1026.25 66.3813 1026.07 65.9067 1026.07 65.32C1026.07 64.8187 1026.21 64.376 1026.47 63.992C1026.75 63.608 1027.14 63.3093 1027.64 63.096C1028.15 62.872 1028.75 62.76 1029.43 62.76C1030.03 62.76 1030.59 62.84 1031.11 63C1031.65 63.16 1032.1 63.4 1032.46 63.72L1031.88 65.016C1031.55 64.7493 1031.17 64.5413 1030.75 64.392C1030.32 64.2427 1029.9 64.168 1029.5 64.168C1028.94 64.168 1028.54 64.2693 1028.28 64.472C1028.03 64.664 1027.9 64.9147 1027.9 65.224C1027.9 65.4587 1027.97 65.656 1028.12 65.816C1028.28 65.9653 1028.53 66.0773 1028.86 66.152L1030.46 66.456C1031.17 66.5947 1031.71 66.84 1032.07 67.192C1032.45 67.5333 1032.63 68.0027 1032.63 68.6C1032.63 69.1333 1032.49 69.592 1032.2 69.976C1031.91 70.36 1031.51 70.6533 1031 70.856C1030.49 71.0587 1029.89 71.16 1029.21 71.16ZM1038.25 71.16C1036.9 71.16 1035.83 70.7867 1035.07 70.04C1034.3 69.2933 1033.91 68.2693 1033.91 66.968C1033.91 66.1253 1034.08 65.3893 1034.41 64.76C1034.74 64.1307 1035.2 63.64 1035.79 63.288C1036.38 62.936 1037.08 62.76 1037.87 62.76C1038.64 62.76 1039.3 62.9253 1039.82 63.256C1040.34 63.5867 1040.74 64.0507 1041 64.648C1041.28 65.2453 1041.42 65.944 1041.42 66.744V67.272H1035.53V66.216H1039.99L1039.72 66.44C1039.72 65.6933 1039.56 65.1227 1039.24 64.728C1038.93 64.3333 1038.48 64.136 1037.88 64.136C1037.22 64.136 1036.71 64.3707 1036.35 64.84C1035.99 65.3093 1035.82 65.9653 1035.82 66.808V67.016C1035.82 67.8907 1036.03 68.5467 1036.46 68.984C1036.9 69.4107 1037.51 69.624 1038.3 69.624C1038.76 69.624 1039.18 69.5653 1039.58 69.448C1039.98 69.32 1040.37 69.1173 1040.73 68.84L1041.32 70.184C1040.94 70.4933 1040.48 70.7333 1039.95 70.904C1039.41 71.0747 1038.85 71.16 1038.25 71.16ZM1051.41 71.16C1050.05 71.16 1048.99 70.7867 1048.22 70.04C1047.45 69.2933 1047.07 68.2693 1047.07 66.968C1047.07 66.1253 1047.24 65.3893 1047.57 64.76C1047.9 64.1307 1048.36 63.64 1048.94 63.288C1049.54 62.936 1050.23 62.76 1051.02 62.76C1051.8 62.76 1052.45 62.9253 1052.97 63.256C1053.5 63.5867 1053.89 64.0507 1054.16 64.648C1054.44 65.2453 1054.57 65.944 1054.57 66.744V67.272H1048.69V66.216H1053.15L1052.88 66.44C1052.88 65.6933 1052.72 65.1227 1052.4 64.728C1052.09 64.3333 1051.64 64.136 1051.04 64.136C1050.38 64.136 1049.86 64.3707 1049.5 64.84C1049.15 65.3093 1048.97 65.9653 1048.97 66.808V67.016C1048.97 67.8907 1049.19 68.5467 1049.61 68.984C1050.05 69.4107 1050.66 69.624 1051.45 69.624C1051.91 69.624 1052.34 69.5653 1052.73 69.448C1053.14 69.32 1053.52 69.1173 1053.89 68.84L1054.48 70.184C1054.09 70.4933 1053.64 70.7333 1053.1 70.904C1052.57 71.0747 1052 71.16 1051.41 71.16ZM1056.27 71V64.936C1056.27 64.6053 1056.26 64.2693 1056.24 63.928C1056.21 63.5867 1056.18 63.2507 1056.14 62.92H1058.08L1058.24 64.52H1058.04C1058.3 63.9547 1058.68 63.5227 1059.18 63.224C1059.68 62.9147 1060.26 62.76 1060.92 62.76C1061.87 62.76 1062.59 63.0267 1063.07 63.56C1063.55 64.0933 1063.79 64.9253 1063.79 66.056V71H1061.79V66.152C1061.79 65.5013 1061.66 65.0373 1061.4 64.76C1061.16 64.472 1060.79 64.328 1060.28 64.328C1059.67 64.328 1059.17 64.52 1058.81 64.904C1058.45 65.288 1058.27 65.8 1058.27 66.44V71H1056.27ZM1074.01 71.16C1073.18 71.16 1072.45 70.9893 1071.82 70.648C1071.2 70.3067 1070.72 69.8213 1070.38 69.192C1070.04 68.552 1069.87 67.7947 1069.87 66.92C1069.87 66.0453 1070.04 65.2987 1070.38 64.68C1070.73 64.0613 1071.22 63.5867 1071.83 63.256C1072.45 62.9253 1073.18 62.76 1074.01 62.76C1074.54 62.76 1075.06 62.8453 1075.56 63.016C1076.07 63.176 1076.49 63.4107 1076.81 63.72L1076.2 65.112C1075.91 64.8453 1075.59 64.648 1075.23 64.52C1074.87 64.3813 1074.53 64.312 1074.19 64.312C1073.47 64.312 1072.91 64.536 1072.51 64.984C1072.11 65.432 1071.91 66.0827 1071.91 66.936C1071.91 67.7893 1072.11 68.4453 1072.51 68.904C1072.91 69.3627 1073.47 69.592 1074.19 69.592C1074.52 69.592 1074.86 69.528 1075.21 69.4C1075.57 69.272 1075.9 69.0747 1076.2 68.808L1076.81 70.184C1076.48 70.4933 1076.06 70.7333 1075.55 70.904C1075.05 71.0747 1074.53 71.16 1074.01 71.16ZM1078.36 71V59.224H1080.36V64.536H1080.14C1080.38 63.96 1080.76 63.5227 1081.27 63.224C1081.79 62.9147 1082.37 62.76 1083.03 62.76C1083.99 62.76 1084.71 63.032 1085.18 63.576C1085.65 64.1093 1085.88 64.9253 1085.88 66.024V71H1083.88V66.12C1083.88 65.4907 1083.76 65.0373 1083.51 64.76C1083.28 64.472 1082.9 64.328 1082.38 64.328C1081.77 64.328 1081.28 64.52 1080.91 64.904C1080.54 65.2773 1080.36 65.7787 1080.36 66.408V71H1078.36ZM1091.12 71.16C1090.42 71.16 1089.8 70.9947 1089.27 70.664C1088.73 70.3227 1088.32 69.8373 1088.02 69.208C1087.72 68.5787 1087.57 67.8267 1087.57 66.952C1087.57 66.0773 1087.72 65.3307 1088.02 64.712C1088.32 64.0827 1088.73 63.6027 1089.27 63.272C1089.8 62.9307 1090.42 62.76 1091.12 62.76C1091.8 62.76 1092.4 62.9307 1092.91 63.272C1093.44 63.6027 1093.78 64.0507 1093.95 64.616H1093.78L1093.95 62.92H1095.87C1095.84 63.2507 1095.81 63.5867 1095.78 63.928C1095.76 64.2693 1095.75 64.6053 1095.75 64.936V71H1093.76L1093.75 69.336H1093.94C1093.77 69.8907 1093.42 70.3333 1092.9 70.664C1092.38 70.9947 1091.78 71.16 1091.12 71.16ZM1091.68 69.624C1092.31 69.624 1092.82 69.4053 1093.2 68.968C1093.59 68.52 1093.78 67.848 1093.78 66.952C1093.78 66.056 1093.59 65.3893 1093.2 64.952C1092.82 64.5147 1092.31 64.296 1091.68 64.296C1091.05 64.296 1090.55 64.5147 1090.16 64.952C1089.78 65.3893 1089.59 66.056 1089.59 66.952C1089.59 67.848 1089.77 68.52 1090.15 68.968C1090.53 69.4053 1091.04 69.624 1091.68 69.624ZM1097.91 71V64.984C1097.91 64.6427 1097.9 64.296 1097.88 63.944C1097.87 63.592 1097.84 63.2507 1097.8 62.92H1099.73L1099.96 65.128H1099.64C1099.74 64.5947 1099.92 64.152 1100.16 63.8C1100.42 63.448 1100.73 63.1867 1101.09 63.016C1101.45 62.8453 1101.85 62.76 1102.28 62.76C1102.47 62.76 1102.62 62.7707 1102.74 62.792C1102.86 62.8027 1102.97 62.8293 1103.09 62.872L1103.08 64.632C1102.87 64.5467 1102.7 64.4933 1102.55 64.472C1102.41 64.4507 1102.23 64.44 1102.02 64.44C1101.56 64.44 1101.17 64.536 1100.85 64.728C1100.54 64.92 1100.31 65.1867 1100.15 65.528C1100 65.8693 1099.92 66.2587 1099.92 66.696V71H1097.91ZM1107.82 74.584C1107.08 74.584 1106.4 74.504 1105.79 74.344C1105.19 74.184 1104.66 73.9387 1104.19 73.608L1104.62 72.168C1104.93 72.3707 1105.25 72.536 1105.58 72.664C1105.91 72.792 1106.26 72.888 1106.61 72.952C1106.96 73.016 1107.32 73.048 1107.68 73.048C1108.43 73.048 1108.98 72.8613 1109.34 72.488C1109.72 72.1253 1109.9 71.6027 1109.9 70.92V68.984H1110.06C1109.89 69.5387 1109.55 69.9813 1109.02 70.312C1108.51 70.6427 1107.92 70.808 1107.25 70.808C1106.52 70.808 1105.89 70.648 1105.34 70.328C1104.81 69.9973 1104.39 69.528 1104.1 68.92C1103.8 68.312 1103.65 67.5973 1103.65 66.776C1103.65 65.9547 1103.8 65.2453 1104.1 64.648C1104.39 64.04 1104.81 63.576 1105.34 63.256C1105.89 62.9253 1106.52 62.76 1107.25 62.76C1107.93 62.76 1108.52 62.9253 1109.02 63.256C1109.54 63.576 1109.88 64.0133 1110.05 64.568L1109.9 64.472L1110.06 62.92H1112C1111.96 63.2507 1111.93 63.5867 1111.9 63.928C1111.88 64.2693 1111.87 64.6053 1111.87 64.936V70.68C1111.87 71.9493 1111.53 72.9147 1110.83 73.576C1110.15 74.248 1109.15 74.584 1107.82 74.584ZM1107.79 69.272C1108.43 69.272 1108.94 69.0587 1109.31 68.632C1109.7 68.1947 1109.89 67.576 1109.89 66.776C1109.89 65.976 1109.7 65.3627 1109.31 64.936C1108.94 64.5093 1108.43 64.296 1107.79 64.296C1107.14 64.296 1106.62 64.5093 1106.24 64.936C1105.86 65.3627 1105.66 65.976 1105.66 66.776C1105.66 67.576 1105.86 68.1947 1106.24 68.632C1106.62 69.0587 1107.14 69.272 1107.79 69.272ZM1117.94 71.16C1116.58 71.16 1115.52 70.7867 1114.75 70.04C1113.99 69.2933 1113.6 68.2693 1113.6 66.968C1113.6 66.1253 1113.77 65.3893 1114.1 64.76C1114.43 64.1307 1114.89 63.64 1115.47 63.288C1116.07 62.936 1116.76 62.76 1117.55 62.76C1118.33 62.76 1118.98 62.9253 1119.51 63.256C1120.03 63.5867 1120.42 64.0507 1120.69 64.648C1120.97 65.2453 1121.11 65.944 1121.11 66.744V67.272H1115.22V66.216H1119.68L1119.41 66.44C1119.41 65.6933 1119.25 65.1227 1118.93 64.728C1118.62 64.3333 1118.17 64.136 1117.57 64.136C1116.91 64.136 1116.4 64.3707 1116.03 64.84C1115.68 65.3093 1115.51 65.9653 1115.51 66.808V67.016C1115.51 67.8907 1115.72 68.5467 1116.15 68.984C1116.58 69.4107 1117.2 69.624 1117.99 69.624C1118.44 69.624 1118.87 69.5653 1119.27 69.448C1119.67 69.32 1120.05 69.1173 1120.42 68.84L1121.01 70.184C1120.63 70.4933 1120.17 70.7333 1119.63 70.904C1119.1 71.0747 1118.53 71.16 1117.94 71.16ZM997.971 94.456V84.936C997.971 84.6053 997.96 84.2693 997.939 83.928C997.917 83.5867 997.885 83.2507 997.843 82.92H999.779L999.955 84.616H999.779C999.939 84.0507 1000.27 83.6027 1000.79 83.272C1001.31 82.9307 1001.91 82.76 1002.59 82.76C1003.31 82.76 1003.93 82.9307 1004.47 83.272C1005 83.6027 1005.42 84.0827 1005.71 84.712C1006.01 85.3307 1006.16 86.0773 1006.16 86.952C1006.16 87.8267 1006.01 88.5787 1005.71 89.208C1005.42 89.8373 1005 90.3227 1004.47 90.664C1003.93 90.9947 1003.31 91.16 1002.59 91.16C1001.92 91.16 1001.33 90.9947 1000.82 90.664C1000.31 90.3333 999.965 89.8907 999.795 89.336H999.971V94.456H997.971ZM1002.03 89.624C1002.67 89.624 1003.19 89.4053 1003.57 88.968C1003.95 88.52 1004.15 87.848 1004.15 86.952C1004.15 86.056 1003.95 85.3893 1003.57 84.952C1003.19 84.5147 1002.67 84.296 1002.03 84.296C1001.41 84.296 1000.9 84.5147 1000.51 84.952C1000.13 85.3893 999.939 86.056 999.939 86.952C999.939 87.848 1000.13 88.52 1000.51 88.968C1000.9 89.4053 1001.41 89.624 1002.03 89.624ZM1007.89 91V79.224H1009.89V91H1007.89ZM1015.18 91.16C1014.48 91.16 1013.86 90.9947 1013.33 90.664C1012.8 90.3227 1012.38 89.8373 1012.08 89.208C1011.78 88.5787 1011.63 87.8267 1011.63 86.952C1011.63 86.0773 1011.78 85.3307 1012.08 84.712C1012.38 84.0827 1012.8 83.6027 1013.33 83.272C1013.86 82.9307 1014.48 82.76 1015.18 82.76C1015.87 82.76 1016.46 82.9307 1016.98 83.272C1017.5 83.6027 1017.85 84.0507 1018.02 84.616H1017.84L1018.02 82.92H1019.94C1019.9 83.2507 1019.87 83.5867 1019.84 83.928C1019.82 84.2693 1019.81 84.6053 1019.81 84.936V91H1017.82L1017.81 89.336H1018C1017.83 89.8907 1017.48 90.3333 1016.96 90.664C1016.44 90.9947 1015.85 91.16 1015.18 91.16ZM1015.74 89.624C1016.37 89.624 1016.88 89.4053 1017.26 88.968C1017.65 88.52 1017.84 87.848 1017.84 86.952C1017.84 86.056 1017.65 85.3893 1017.26 84.952C1016.88 84.5147 1016.37 84.296 1015.74 84.296C1015.12 84.296 1014.61 84.5147 1014.22 84.952C1013.84 85.3893 1013.65 86.056 1013.65 86.952C1013.65 87.848 1013.84 88.52 1014.21 88.968C1014.59 89.4053 1015.1 89.624 1015.74 89.624ZM1025.44 91.16C1024.48 91.16 1023.76 90.9093 1023.27 90.408C1022.78 89.9067 1022.53 89.1547 1022.53 88.152V84.424H1020.98V82.92H1022.53V80.856L1024.53 80.344V82.92H1026.69V84.424H1024.53V88.024C1024.53 88.5787 1024.64 88.968 1024.85 89.192C1025.06 89.416 1025.36 89.528 1025.73 89.528C1025.93 89.528 1026.1 89.512 1026.24 89.48C1026.39 89.448 1026.54 89.4053 1026.67 89.352V90.936C1026.49 91.0107 1026.29 91.064 1026.07 91.096C1025.85 91.1387 1025.65 91.16 1025.44 91.16ZM1031.87 91.16C1030.52 91.16 1029.46 90.7867 1028.69 90.04C1027.92 89.2933 1027.54 88.2693 1027.54 86.968C1027.54 86.1253 1027.7 85.3893 1028.03 84.76C1028.37 84.1307 1028.82 83.64 1029.41 83.288C1030.01 82.936 1030.7 82.76 1031.49 82.76C1032.27 82.76 1032.92 82.9253 1033.44 83.256C1033.97 83.5867 1034.36 84.0507 1034.63 84.648C1034.9 85.2453 1035.04 85.944 1035.04 86.744V87.272H1029.15V86.216H1033.62L1033.35 86.44C1033.35 85.6933 1033.19 85.1227 1032.87 84.728C1032.56 84.3333 1032.1 84.136 1031.51 84.136C1030.85 84.136 1030.33 84.3707 1029.97 84.84C1029.62 85.3093 1029.44 85.9653 1029.44 86.808V87.016C1029.44 87.8907 1029.66 88.5467 1030.08 88.984C1030.52 89.4107 1031.13 89.624 1031.92 89.624C1032.38 89.624 1032.81 89.5653 1033.2 89.448C1033.61 89.32 1033.99 89.1173 1034.35 88.84L1034.95 90.184C1034.56 90.4933 1034.1 90.7333 1033.57 90.904C1033.04 91.0747 1032.47 91.16 1031.87 91.16ZM1037.25 91V84.424H1035.7V82.92H1037.81L1037.25 83.432V82.2C1037.25 81.1973 1037.51 80.44 1038.02 79.928C1038.54 79.416 1039.3 79.16 1040.31 79.16C1040.54 79.16 1040.79 79.176 1041.04 79.208C1041.31 79.24 1041.54 79.2987 1041.73 79.384V80.952C1041.59 80.8987 1041.43 80.856 1041.23 80.824C1041.04 80.792 1040.85 80.776 1040.67 80.776C1040.4 80.776 1040.15 80.8293 1039.92 80.936C1039.71 81.0427 1039.54 81.208 1039.41 81.432C1039.29 81.6453 1039.23 81.9333 1039.23 82.296V83.272L1038.95 82.92H1041.36V84.424H1039.25V91H1037.25ZM1046.04 91.16C1045.21 91.16 1044.49 90.9893 1043.88 90.648C1043.27 90.3067 1042.8 89.8213 1042.46 89.192C1042.13 88.5627 1041.96 87.816 1041.96 86.952C1041.96 86.088 1042.13 85.3467 1042.46 84.728C1042.8 84.0987 1043.27 83.6133 1043.88 83.272C1044.49 82.9307 1045.21 82.76 1046.04 82.76C1046.87 82.76 1047.59 82.9307 1048.2 83.272C1048.82 83.6133 1049.29 84.0987 1049.62 84.728C1049.97 85.3467 1050.14 86.088 1050.14 86.952C1050.14 87.816 1049.97 88.5627 1049.62 89.192C1049.29 89.8213 1048.82 90.3067 1048.2 90.648C1047.59 90.9893 1046.87 91.16 1046.04 91.16ZM1046.04 89.624C1046.67 89.624 1047.17 89.4053 1047.54 88.968C1047.92 88.52 1048.1 87.848 1048.1 86.952C1048.1 86.056 1047.92 85.3893 1047.54 84.952C1047.17 84.5147 1046.67 84.296 1046.04 84.296C1045.41 84.296 1044.91 84.5147 1044.54 84.952C1044.16 85.3893 1043.98 86.056 1043.98 86.952C1043.98 87.848 1044.16 88.52 1044.54 88.968C1044.91 89.4053 1045.41 89.624 1046.04 89.624ZM1051.85 91V84.984C1051.85 84.6427 1051.83 84.296 1051.81 83.944C1051.8 83.592 1051.78 83.2507 1051.73 82.92H1053.67L1053.89 85.128H1053.57C1053.68 84.5947 1053.86 84.152 1054.1 83.8C1054.36 83.448 1054.67 83.1867 1055.03 83.016C1055.39 82.8453 1055.79 82.76 1056.21 82.76C1056.41 82.76 1056.56 82.7707 1056.68 82.792C1056.79 82.8027 1056.91 82.8293 1057.03 82.872L1057.01 84.632C1056.81 84.5467 1056.63 84.4933 1056.49 84.472C1056.35 84.4507 1056.17 84.44 1055.96 84.44C1055.5 84.44 1055.11 84.536 1054.79 84.728C1054.48 84.92 1054.25 85.1867 1054.09 85.528C1053.94 85.8693 1053.86 86.2587 1053.86 86.696V91H1051.85ZM1058.14 91V84.936C1058.14 84.6053 1058.13 84.2693 1058.11 83.928C1058.09 83.5867 1058.06 83.2507 1058.01 82.92H1059.95L1060.11 84.52H1059.92C1060.14 83.9653 1060.48 83.5333 1060.94 83.224C1061.41 82.9147 1061.97 82.76 1062.61 82.76C1063.25 82.76 1063.77 82.9147 1064.19 83.224C1064.62 83.5227 1064.92 83.992 1065.09 84.632H1064.83C1065.05 84.056 1065.42 83.6027 1065.93 83.272C1066.45 82.9307 1067.03 82.76 1067.69 82.76C1068.6 82.76 1069.28 83.0267 1069.73 83.56C1070.17 84.0933 1070.4 84.9253 1070.4 86.056V91H1068.4V86.136C1068.4 85.496 1068.29 85.0373 1068.08 84.76C1067.87 84.472 1067.52 84.328 1067.05 84.328C1066.5 84.328 1066.06 84.5253 1065.74 84.92C1065.42 85.304 1065.26 85.8267 1065.26 86.488V91H1063.26V86.136C1063.26 85.496 1063.16 85.0373 1062.94 84.76C1062.73 84.472 1062.39 84.328 1061.92 84.328C1061.36 84.328 1060.93 84.5253 1060.61 84.92C1060.3 85.304 1060.14 85.8267 1060.14 86.488V91H1058.14ZM1076.44 91.16C1075.08 91.16 1074.02 90.7867 1073.25 90.04C1072.49 89.2933 1072.1 88.2693 1072.1 86.968C1072.1 86.1253 1072.27 85.3893 1072.6 84.76C1072.93 84.1307 1073.39 83.64 1073.97 83.288C1074.57 82.936 1075.26 82.76 1076.05 82.76C1076.83 82.76 1077.48 82.9253 1078.01 83.256C1078.53 83.5867 1078.92 84.0507 1079.19 84.648C1079.47 85.2453 1079.61 85.944 1079.61 86.744V87.272H1073.72V86.216H1078.18L1077.91 86.44C1077.91 85.6933 1077.75 85.1227 1077.43 84.728C1077.12 84.3333 1076.67 84.136 1076.07 84.136C1075.41 84.136 1074.9 84.3707 1074.53 84.84C1074.18 85.3093 1074.01 85.9653 1074.01 86.808V87.016C1074.01 87.8907 1074.22 88.5467 1074.65 88.984C1075.08 89.4107 1075.7 89.624 1076.49 89.624C1076.94 89.624 1077.37 89.5653 1077.77 89.448C1078.17 89.32 1078.55 89.1173 1078.92 88.84L1079.51 90.184C1079.13 90.4933 1078.67 90.7333 1078.13 90.904C1077.6 91.0747 1077.03 91.16 1076.44 91.16ZM1085.69 91V79.224H1087.69V91H1085.69ZM1093.51 91.16C1092.68 91.16 1091.96 90.9893 1091.35 90.648C1090.74 90.3067 1090.27 89.8213 1089.93 89.192C1089.59 88.5627 1089.43 87.816 1089.43 86.952C1089.43 86.088 1089.59 85.3467 1089.93 84.728C1090.27 84.0987 1090.74 83.6133 1091.35 83.272C1091.96 82.9307 1092.68 82.76 1093.51 82.76C1094.34 82.76 1095.06 82.9307 1095.67 83.272C1096.29 83.6133 1096.76 84.0987 1097.09 84.728C1097.43 85.3467 1097.61 86.088 1097.61 86.952C1097.61 87.816 1097.43 88.5627 1097.09 89.192C1096.76 89.8213 1096.29 90.3067 1095.67 90.648C1095.06 90.9893 1094.34 91.16 1093.51 91.16ZM1093.51 89.624C1094.14 89.624 1094.64 89.4053 1095.01 88.968C1095.39 88.52 1095.57 87.848 1095.57 86.952C1095.57 86.056 1095.39 85.3893 1095.01 84.952C1094.64 84.5147 1094.14 84.296 1093.51 84.296C1092.88 84.296 1092.38 84.5147 1092.01 84.952C1091.63 85.3893 1091.45 86.056 1091.45 86.952C1091.45 87.848 1091.63 88.52 1092.01 88.968C1092.38 89.4053 1092.88 89.624 1093.51 89.624ZM1103.04 91.16C1102.21 91.16 1101.48 90.9893 1100.85 90.648C1100.23 90.3067 1099.75 89.8213 1099.41 89.192C1099.07 88.552 1098.9 87.7947 1098.9 86.92C1098.9 86.0453 1099.07 85.2987 1099.41 84.68C1099.76 84.0613 1100.25 83.5867 1100.87 83.256C1101.48 82.9253 1102.21 82.76 1103.04 82.76C1103.58 82.76 1104.09 82.8453 1104.59 83.016C1105.11 83.176 1105.52 83.4107 1105.84 83.72L1105.23 85.112C1104.95 84.8453 1104.62 84.648 1104.26 84.52C1103.91 84.3813 1103.56 84.312 1103.22 84.312C1102.5 84.312 1101.94 84.536 1101.54 84.984C1101.14 85.432 1100.95 86.0827 1100.95 86.936C1100.95 87.7893 1101.14 88.4453 1101.54 88.904C1101.94 89.3627 1102.5 89.592 1103.22 89.592C1103.55 89.592 1103.89 89.528 1104.24 89.4C1104.6 89.272 1104.94 89.0747 1105.23 88.808L1105.84 90.184C1105.51 90.4933 1105.09 90.7333 1104.58 90.904C1104.08 91.0747 1103.56 91.16 1103.04 91.16ZM1110.47 91.16C1109.76 91.16 1109.14 90.9947 1108.61 90.664C1108.08 90.3227 1107.66 89.8373 1107.36 89.208C1107.06 88.5787 1106.91 87.8267 1106.91 86.952C1106.91 86.0773 1107.06 85.3307 1107.36 84.712C1107.66 84.0827 1108.08 83.6027 1108.61 83.272C1109.14 82.9307 1109.76 82.76 1110.47 82.76C1111.15 82.76 1111.75 82.9307 1112.26 83.272C1112.78 83.6027 1113.13 84.0507 1113.3 84.616H1113.12L1113.3 82.92H1115.22C1115.19 83.2507 1115.15 83.5867 1115.12 83.928C1115.1 84.2693 1115.09 84.6053 1115.09 84.936V91H1113.11L1113.09 89.336H1113.28C1113.11 89.8907 1112.76 90.3333 1112.24 90.664C1111.72 90.9947 1111.13 91.16 1110.47 91.16ZM1111.03 89.624C1111.66 89.624 1112.16 89.4053 1112.55 88.968C1112.93 88.52 1113.12 87.848 1113.12 86.952C1113.12 86.056 1112.93 85.3893 1112.55 84.952C1112.16 84.5147 1111.66 84.296 1111.03 84.296C1110.4 84.296 1109.89 84.5147 1109.51 84.952C1109.12 85.3893 1108.93 86.056 1108.93 86.952C1108.93 87.848 1109.12 88.52 1109.49 88.968C1109.87 89.4053 1110.39 89.624 1111.03 89.624ZM1117.27 91V79.224H1119.27V91H1117.27ZM1125.34 91.16C1123.99 91.16 1122.93 90.7867 1122.16 90.04C1121.39 89.2933 1121.01 88.2693 1121.01 86.968C1121.01 86.1253 1121.17 85.3893 1121.5 84.76C1121.83 84.1307 1122.29 83.64 1122.88 83.288C1123.48 82.936 1124.17 82.76 1124.96 82.76C1125.74 82.76 1126.39 82.9253 1126.91 83.256C1127.43 83.5867 1127.83 84.0507 1128.1 84.648C1128.37 85.2453 1128.51 85.944 1128.51 86.744V87.272H1122.62V86.216H1127.09L1126.82 86.44C1126.82 85.6933 1126.66 85.1227 1126.34 84.728C1126.03 84.3333 1125.57 84.136 1124.98 84.136C1124.31 84.136 1123.8 84.3707 1123.44 84.84C1123.09 85.3093 1122.91 85.9653 1122.91 86.808V87.016C1122.91 87.8907 1123.12 88.5467 1123.55 88.984C1123.99 89.4107 1124.6 89.624 1125.39 89.624C1125.85 89.624 1126.28 89.5653 1126.67 89.448C1127.08 89.32 1127.46 89.1173 1127.82 88.84L1128.42 90.184C1128.03 90.4933 1127.57 90.7333 1127.04 90.904C1126.51 91.0747 1125.94 91.16 1125.34 91.16Z" fill="black"/>
<path d="M1256.25 70V58.72H1258.31V68.256H1263.62V70H1256.25ZM1265.04 70V61.92H1267.04V70H1265.04ZM1264.93 60.4V58.448H1267.15V60.4H1264.93ZM1271.58 70L1268.09 61.92H1270.22L1272.75 68.24H1272.25L1274.85 61.92H1276.85L1273.34 70H1271.58ZM1277.9 70V63.984C1277.9 63.6427 1277.89 63.296 1277.87 62.944C1277.86 62.592 1277.83 62.2507 1277.79 61.92H1279.72L1279.95 64.128H1279.63C1279.73 63.5947 1279.91 63.152 1280.16 62.8C1280.41 62.448 1280.72 62.1867 1281.08 62.016C1281.45 61.8453 1281.84 61.76 1282.27 61.76C1282.46 61.76 1282.61 61.7707 1282.73 61.792C1282.85 61.8027 1282.97 61.8293 1283.08 61.872L1283.07 63.632C1282.87 63.5467 1282.69 63.4933 1282.54 63.472C1282.4 63.4507 1282.23 63.44 1282.01 63.44C1281.55 63.44 1281.16 63.536 1280.84 63.728C1280.53 63.92 1280.3 64.1867 1280.14 64.528C1279.99 64.8693 1279.92 65.2587 1279.92 65.696V70H1277.9ZM1287.98 70.16C1286.62 70.16 1285.56 69.7867 1284.79 69.04C1284.02 68.2933 1283.64 67.2693 1283.64 65.968C1283.64 65.1253 1283.81 64.3893 1284.14 63.76C1284.47 63.1307 1284.93 62.64 1285.51 62.288C1286.11 61.936 1286.8 61.76 1287.59 61.76C1288.37 61.76 1289.02 61.9253 1289.54 62.256C1290.07 62.5867 1290.46 63.0507 1290.73 63.648C1291.01 64.2453 1291.14 64.944 1291.14 65.744V66.272H1285.26V65.216H1289.72L1289.45 65.44C1289.45 64.6933 1289.29 64.1227 1288.97 63.728C1288.66 63.3333 1288.21 63.136 1287.61 63.136C1286.95 63.136 1286.44 63.3707 1286.07 63.84C1285.72 64.3093 1285.54 64.9653 1285.54 65.808V66.016C1285.54 66.8907 1285.76 67.5467 1286.18 67.984C1286.62 68.4107 1287.24 68.624 1288.02 68.624C1288.48 68.624 1288.91 68.5653 1289.3 68.448C1289.71 68.32 1290.09 68.1173 1290.46 67.84L1291.05 69.184C1290.66 69.4933 1290.21 69.7333 1289.67 69.904C1289.14 70.0747 1288.57 70.16 1287.98 70.16ZM1286.92 61.136L1288.57 57.888H1290.54L1288.26 61.136H1286.92ZM1296.74 70.16C1295.39 70.16 1294.33 69.7867 1293.56 69.04C1292.79 68.2933 1292.41 67.2693 1292.41 65.968C1292.41 65.1253 1292.57 64.3893 1292.9 63.76C1293.23 63.1307 1293.69 62.64 1294.28 62.288C1294.88 61.936 1295.57 61.76 1296.36 61.76C1297.14 61.76 1297.79 61.9253 1298.31 62.256C1298.83 62.5867 1299.23 63.0507 1299.49 63.648C1299.77 64.2453 1299.91 64.944 1299.91 65.744V66.272H1294.02V65.216H1298.49L1298.21 65.44C1298.21 64.6933 1298.05 64.1227 1297.73 63.728C1297.42 63.3333 1296.97 63.136 1296.37 63.136C1295.71 63.136 1295.2 63.3707 1294.84 63.84C1294.49 64.3093 1294.31 64.9653 1294.31 65.808V66.016C1294.31 66.8907 1294.52 67.5467 1294.95 67.984C1295.39 68.4107 1296 68.624 1296.79 68.624C1297.25 68.624 1297.68 68.5653 1298.07 68.448C1298.48 68.32 1298.86 68.1173 1299.22 67.84L1299.81 69.184C1299.43 69.4933 1298.97 69.7333 1298.44 69.904C1297.9 70.0747 1297.34 70.16 1296.74 70.16Z" fill="black"/>
<line x1="2.5" y1="22.5" x2="109.5" y2="22.5" stroke="#064082" stroke-width="5" stroke-linecap="round"/>
<line x1="145" y1="22.5" x2="361" y2="22.5" stroke="#064082" stroke-width="5"/>
<line x1="379" y1="22.5" x2="594" y2="22.5" stroke="#064082" stroke-width="5"/>
<line x1="603" y1="22.5" x2="711" y2="22.5" stroke="#064082" stroke-width="5"/>
<line x1="711" y1="22.5" x2="819" y2="22.5" stroke="#064082" stroke-width="5"/>
<line x1="844" y1="22.5" x2="1060" y2="22.5" stroke="#064082" stroke-width="5"/>
<circle cx="125" cy="25" r="25" fill="#064082"/>
<circle cx="356" cy="25" r="25" fill="#064082"/>
<circle cx="591" cy="25" r="25" fill="#064082"/>
<circle cx="826" cy="25" r="24.5" fill="#064082" stroke="#064082"/>
<circle cx="1061" cy="25" r="25" fill="#064082"/>
<circle cx="1277" cy="25" r="25" fill="#FCB66B"/>
<line x1="1066" y1="22.5" x2="1174" y2="22.5" stroke="#064082" stroke-width="5"/>
</svg>
