<svg width="172" height="76" viewBox="0 0 172 76" fill="none" xmlns="http://www.w3.org/2000/svg">
<rect width="1440" height="1169" transform="translate(-407 -477)" fill="white"/>
<g filter="url(#filter0_d_1309_8154)">
<path d="M283.866 0H-173L-122.973 35.4545L-173 72H283.866L367 32.1818L283.866 0Z" fill="#D9D9D9"/>
</g>
<line x1="-0.371094" x2="-0.371094" y2="72" stroke="#BABABA" stroke-width="3"/>
<line y1="-1.5" x2="72.0103" y2="-1.5" transform="matrix(0.0183822 0.999831 -0.999922 0.0124855 169.634 0)" stroke="#BABABA" stroke-width="3"/>
<path d="M36 43L43.656 26.08H46.248L54 43H50.856L48.792 38.248L50.04 39.088H39.888L41.184 38.248L39.12 43H36ZM44.928 29.392L41.544 37.408L40.92 36.664H48.984L48.48 37.408L45.024 29.392H44.928ZM60.2188 43.24C59.1628 43.24 58.2268 42.992 57.4108 42.496C56.6108 41.984 55.9868 41.256 55.5388 40.312C55.0908 39.368 54.8668 38.24 54.8668 36.928C54.8668 35.616 55.0908 34.496 55.5388 33.568C55.9868 32.624 56.6108 31.904 57.4108 31.408C58.2268 30.896 59.1628 30.64 60.2188 30.64C61.2268 30.64 62.1148 30.888 62.8828 31.384C63.6668 31.864 64.1868 32.52 64.4428 33.352H64.1308V25.336H67.1308V43H64.1788V40.432H64.4668C64.2108 41.296 63.6908 41.984 62.9068 42.496C62.1388 42.992 61.2428 43.24 60.2188 43.24ZM61.0588 40.936C62.0028 40.936 62.7628 40.608 63.3388 39.952C63.9148 39.28 64.2028 38.272 64.2028 36.928C64.2028 35.584 63.9148 34.584 63.3388 33.928C62.7628 33.272 62.0028 32.944 61.0588 32.944C60.1148 32.944 59.3468 33.272 58.7548 33.928C58.1788 34.584 57.8908 35.584 57.8908 36.928C57.8908 38.272 58.1788 39.28 58.7548 39.952C59.3468 40.608 60.1148 40.936 61.0588 40.936ZM70.3736 43V33.976C70.3736 33.464 70.3576 32.944 70.3256 32.416C70.3096 31.888 70.2696 31.376 70.2056 30.88H73.1096L73.4456 34.192H72.9656C73.1256 33.392 73.3896 32.728 73.7576 32.2C74.1416 31.672 74.6056 31.28 75.1496 31.024C75.6936 30.768 76.2856 30.64 76.9256 30.64C77.2136 30.64 77.4456 30.656 77.6216 30.688C77.7976 30.704 77.9736 30.744 78.1496 30.808L78.1256 33.448C77.8216 33.32 77.5576 33.24 77.3336 33.208C77.1256 33.176 76.8616 33.16 76.5416 33.16C75.8536 33.16 75.2696 33.304 74.7896 33.592C74.3256 33.88 73.9736 34.28 73.7336 34.792C73.5096 35.304 73.3976 35.888 73.3976 36.544V43H70.3736ZM85.488 43.24C83.456 43.24 81.864 42.68 80.712 41.56C79.56 40.44 78.984 38.904 78.984 36.952C78.984 35.688 79.232 34.584 79.728 33.64C80.224 32.696 80.912 31.96 81.792 31.432C82.688 30.904 83.728 30.64 84.912 30.64C86.08 30.64 87.056 30.888 87.84 31.384C88.624 31.88 89.216 32.576 89.616 33.472C90.032 34.368 90.24 35.416 90.24 36.616V37.408H81.408V35.824H88.104L87.696 36.16C87.696 35.04 87.456 34.184 86.976 33.592C86.512 33 85.832 32.704 84.936 32.704C83.944 32.704 83.176 33.056 82.632 33.76C82.104 34.464 81.84 35.448 81.84 36.712V37.024C81.84 38.336 82.16 39.32 82.8 39.976C83.456 40.616 84.376 40.936 85.56 40.936C86.248 40.936 86.888 40.848 87.48 40.672C88.088 40.48 88.664 40.176 89.208 39.76L90.096 41.776C89.52 42.24 88.832 42.6 88.032 42.856C87.232 43.112 86.384 43.24 85.488 43.24ZM97.1004 43.24C96.0604 43.24 95.1004 43.12 94.2204 42.88C93.3564 42.624 92.6284 42.272 92.0364 41.824L92.8764 39.808C93.4844 40.224 94.1564 40.544 94.8924 40.768C95.6284 40.992 96.3724 41.104 97.1244 41.104C97.9244 41.104 98.5164 40.968 98.9004 40.696C99.3004 40.424 99.5004 40.056 99.5004 39.592C99.5004 39.224 99.3724 38.936 99.1164 38.728C98.8764 38.504 98.4844 38.336 97.9404 38.224L95.5404 37.768C94.5164 37.544 93.7324 37.16 93.1884 36.616C92.6604 36.072 92.3964 35.36 92.3964 34.48C92.3964 33.728 92.5964 33.064 92.9964 32.488C93.4124 31.912 93.9964 31.464 94.7484 31.144C95.5164 30.808 96.4124 30.64 97.4364 30.64C98.3324 30.64 99.1724 30.76 99.9564 31C100.756 31.24 101.428 31.6 101.972 32.08L101.108 34.024C100.612 33.624 100.044 33.312 99.4044 33.088C98.7644 32.864 98.1404 32.752 97.5324 32.752C96.7004 32.752 96.0924 32.904 95.7084 33.208C95.3244 33.496 95.1324 33.872 95.1324 34.336C95.1324 34.688 95.2444 34.984 95.4684 35.224C95.7084 35.448 96.0764 35.616 96.5724 35.728L98.9724 36.184C100.044 36.392 100.852 36.76 101.396 37.288C101.956 37.8 102.236 38.504 102.236 39.4C102.236 40.2 102.02 40.888 101.588 41.464C101.156 42.04 100.556 42.48 99.7884 42.784C99.0204 43.088 98.1244 43.24 97.1004 43.24ZM109.124 43.24C108.084 43.24 107.124 43.12 106.244 42.88C105.38 42.624 104.652 42.272 104.06 41.824L104.9 39.808C105.508 40.224 106.18 40.544 106.916 40.768C107.652 40.992 108.396 41.104 109.148 41.104C109.948 41.104 110.54 40.968 110.924 40.696C111.324 40.424 111.524 40.056 111.524 39.592C111.524 39.224 111.396 38.936 111.14 38.728C110.9 38.504 110.508 38.336 109.964 38.224L107.564 37.768C106.54 37.544 105.756 37.16 105.212 36.616C104.684 36.072 104.42 35.36 104.42 34.48C104.42 33.728 104.62 33.064 105.02 32.488C105.436 31.912 106.02 31.464 106.772 31.144C107.54 30.808 108.436 30.64 109.46 30.64C110.356 30.64 111.196 30.76 111.98 31C112.78 31.24 113.452 31.6 113.996 32.08L113.132 34.024C112.636 33.624 112.068 33.312 111.428 33.088C110.788 32.864 110.164 32.752 109.556 32.752C108.724 32.752 108.116 32.904 107.732 33.208C107.348 33.496 107.156 33.872 107.156 34.336C107.156 34.688 107.268 34.984 107.492 35.224C107.732 35.448 108.1 35.616 108.596 35.728L110.996 36.184C112.068 36.392 112.876 36.76 113.42 37.288C113.98 37.8 114.26 38.504 114.26 39.4C114.26 40.2 114.044 40.888 113.612 41.464C113.18 42.04 112.58 42.48 111.812 42.784C111.044 43.088 110.148 43.24 109.124 43.24ZM122.683 43.24C120.651 43.24 119.059 42.68 117.907 41.56C116.755 40.44 116.179 38.904 116.179 36.952C116.179 35.688 116.427 34.584 116.923 33.64C117.419 32.696 118.107 31.96 118.987 31.432C119.883 30.904 120.923 30.64 122.107 30.64C123.275 30.64 124.251 30.888 125.035 31.384C125.819 31.88 126.411 32.576 126.811 33.472C127.227 34.368 127.435 35.416 127.435 36.616V37.408H118.603V35.824H125.299L124.891 36.16C124.891 35.04 124.651 34.184 124.171 33.592C123.707 33 123.027 32.704 122.131 32.704C121.139 32.704 120.371 33.056 119.827 33.76C119.299 34.464 119.035 35.448 119.035 36.712V37.024C119.035 38.336 119.355 39.32 119.995 39.976C120.651 40.616 121.571 40.936 122.755 40.936C123.443 40.936 124.083 40.848 124.675 40.672C125.283 40.48 125.859 40.176 126.403 39.76L127.291 41.776C126.715 42.24 126.027 42.6 125.227 42.856C124.427 43.112 123.579 43.24 122.683 43.24Z" fill="#064082"/>
<defs>
<filter id="filter0_d_1309_8154" x="-177" y="0" width="548" height="80" filterUnits="userSpaceOnUse" color-interpolation-filters="sRGB">
<feFlood flood-opacity="0" result="BackgroundImageFix"/>
<feColorMatrix in="SourceAlpha" type="matrix" values="0 0 0 0 0 0 0 0 0 0 0 0 0 0 0 0 0 0 127 0" result="hardAlpha"/>
<feOffset dy="4"/>
<feGaussianBlur stdDeviation="2"/>
<feComposite in2="hardAlpha" operator="out"/>
<feColorMatrix type="matrix" values="0 0 0 0 0 0 0 0 0 0 0 0 0 0 0 0 0 0 0.25 0"/>
<feBlend mode="normal" in2="BackgroundImageFix" result="effect1_dropShadow_1309_8154"/>
<feBlend mode="normal" in="SourceGraphic" in2="effect1_dropShadow_1309_8154" result="shape"/>
</filter>
</defs>
</svg>
