<svg width="195" height="76" viewBox="0 0 195 76" fill="none" xmlns="http://www.w3.org/2000/svg">
<rect width="1440" height="1169" transform="translate(-579 -477)" fill="white"/>
<g filter="url(#filter0_d_1309_8154)">
<path d="M111.866 0H-345L-294.973 35.4545L-345 72H111.866L195 32.1818L111.866 0Z" fill="#D9D9D9"/>
</g>
<line y1="-1.5" x2="72.0103" y2="-1.5" transform="matrix(0.0183822 0.999831 -0.999922 0.0124855 -2.36621 0)" stroke="#BABABA" stroke-width="3"/>
<path d="M22.872 43V26.08H30.384C32.24 26.08 33.656 26.528 34.632 27.424C35.608 28.32 36.096 29.552 36.096 31.12C36.096 32.672 35.608 33.904 34.632 34.816C33.656 35.728 32.24 36.184 30.384 36.184H25.968V43H22.872ZM25.968 33.736H30.024C31.048 33.736 31.816 33.512 32.328 33.064C32.84 32.6 33.096 31.952 33.096 31.12C33.096 30.288 32.84 29.648 32.328 29.2C31.816 28.736 31.048 28.504 30.024 28.504H25.968V33.736ZM42.7339 43.24C41.6779 43.24 40.7499 42.992 39.9499 42.496C39.1499 41.984 38.5259 41.256 38.0779 40.312C37.6299 39.368 37.4059 38.24 37.4059 36.928C37.4059 35.616 37.6299 34.496 38.0779 33.568C38.5259 32.624 39.1499 31.904 39.9499 31.408C40.7499 30.896 41.6779 30.64 42.7339 30.64C43.7579 30.64 44.6539 30.896 45.4219 31.408C46.2059 31.904 46.7259 32.576 46.9819 33.424H46.7179L46.9819 30.88H49.8619C49.8139 31.376 49.7659 31.88 49.7179 32.392C49.6859 32.904 49.6699 33.408 49.6699 33.904V43H46.6939L46.6699 40.504H46.9579C46.7019 41.336 46.1819 42 45.3979 42.496C44.6139 42.992 43.7259 43.24 42.7339 43.24ZM43.5739 40.936C44.5179 40.936 45.2779 40.608 45.8539 39.952C46.4299 39.28 46.7179 38.272 46.7179 36.928C46.7179 35.584 46.4299 34.584 45.8539 33.928C45.2779 33.272 44.5179 32.944 43.5739 32.944C42.6299 32.944 41.8699 33.272 41.2939 33.928C40.7179 34.584 40.4299 35.584 40.4299 36.928C40.4299 38.272 40.7099 39.28 41.2699 39.952C41.8459 40.608 42.6139 40.936 43.5739 40.936ZM52.9367 43V30.88H55.9367V43H52.9367ZM52.7687 28.6V25.672H56.1047V28.6H52.7687ZM65.0505 43.24C63.0185 43.24 61.4265 42.68 60.2745 41.56C59.1225 40.44 58.5465 38.904 58.5465 36.952C58.5465 35.688 58.7945 34.584 59.2905 33.64C59.7865 32.696 60.4745 31.96 61.3545 31.432C62.2505 30.904 63.2905 30.64 64.4745 30.64C65.6425 30.64 66.6185 30.888 67.4025 31.384C68.1865 31.88 68.7785 32.576 69.1785 33.472C69.5945 34.368 69.8025 35.416 69.8025 36.616V37.408H60.9705V35.824H67.6665L67.2585 36.16C67.2585 35.04 67.0185 34.184 66.5385 33.592C66.0745 33 65.3945 32.704 64.4985 32.704C63.5065 32.704 62.7385 33.056 62.1945 33.76C61.6665 34.464 61.4025 35.448 61.4025 36.712V37.024C61.4025 38.336 61.7225 39.32 62.3625 39.976C63.0185 40.616 63.9385 40.936 65.1225 40.936C65.8105 40.936 66.4505 40.848 67.0425 40.672C67.6505 40.48 68.2265 40.176 68.7705 39.76L69.6585 41.776C69.0825 42.24 68.3945 42.6 67.5945 42.856C66.7945 43.112 65.9465 43.24 65.0505 43.24ZM72.3429 43V33.904C72.3429 33.408 72.3269 32.904 72.2949 32.392C72.2629 31.88 72.2149 31.376 72.1509 30.88H75.0549L75.2949 33.28H75.0069C75.3429 32.448 75.8549 31.8 76.5429 31.336C77.2469 30.872 78.0789 30.64 79.0389 30.64C79.9989 30.64 80.7909 30.872 81.4149 31.336C82.0549 31.784 82.5029 32.488 82.7589 33.448H82.3749C82.7109 32.584 83.2629 31.904 84.0309 31.408C84.7989 30.896 85.6789 30.64 86.6709 30.64C88.0309 30.64 89.0469 31.04 89.7189 31.84C90.3909 32.64 90.7269 33.888 90.7269 35.584V43H87.7269V35.704C87.7269 34.744 87.5669 34.056 87.2469 33.64C86.9269 33.208 86.4149 32.992 85.7109 32.992C84.8789 32.992 84.2229 33.288 83.7429 33.88C83.2629 34.456 83.0229 35.24 83.0229 36.232V43H80.0229V35.704C80.0229 34.744 79.8629 34.056 79.5429 33.64C79.2229 33.208 78.7109 32.992 78.0069 32.992C77.1749 32.992 76.5189 33.288 76.0389 33.88C75.5749 34.456 75.3429 35.24 75.3429 36.232V43H72.3429ZM99.7849 43.24C97.7529 43.24 96.1609 42.68 95.0089 41.56C93.8569 40.44 93.2809 38.904 93.2809 36.952C93.2809 35.688 93.5289 34.584 94.0249 33.64C94.5209 32.696 95.2089 31.96 96.0889 31.432C96.9849 30.904 98.0249 30.64 99.2089 30.64C100.377 30.64 101.353 30.888 102.137 31.384C102.921 31.88 103.513 32.576 103.913 33.472C104.329 34.368 104.537 35.416 104.537 36.616V37.408H95.7049V35.824H102.401L101.993 36.16C101.993 35.04 101.753 34.184 101.273 33.592C100.809 33 100.129 32.704 99.2329 32.704C98.2409 32.704 97.4729 33.056 96.9289 33.76C96.4009 34.464 96.1369 35.448 96.1369 36.712V37.024C96.1369 38.336 96.4569 39.32 97.0969 39.976C97.7529 40.616 98.6729 40.936 99.8569 40.936C100.545 40.936 101.185 40.848 101.777 40.672C102.385 40.48 102.961 40.176 103.505 39.76L104.393 41.776C103.817 42.24 103.129 42.6 102.329 42.856C101.529 43.112 100.681 43.24 99.7849 43.24ZM107.077 43V33.904C107.077 33.408 107.061 32.904 107.029 32.392C106.997 31.88 106.949 31.376 106.885 30.88H109.789L110.029 33.28H109.741C110.125 32.432 110.693 31.784 111.445 31.336C112.197 30.872 113.069 30.64 114.061 30.64C115.485 30.64 116.557 31.04 117.277 31.84C117.997 32.64 118.357 33.888 118.357 35.584V43H115.357V35.728C115.357 34.752 115.165 34.056 114.781 33.64C114.413 33.208 113.853 32.992 113.101 32.992C112.173 32.992 111.437 33.28 110.893 33.856C110.349 34.432 110.077 35.2 110.077 36.16V43H107.077ZM126.722 43.24C125.282 43.24 124.194 42.864 123.458 42.112C122.722 41.36 122.354 40.232 122.354 38.728V33.136H120.026V30.88H122.354V27.784L125.354 27.016V30.88H128.594V33.136H125.354V38.536C125.354 39.368 125.514 39.952 125.834 40.288C126.154 40.624 126.594 40.792 127.154 40.792C127.458 40.792 127.714 40.768 127.922 40.72C128.146 40.672 128.362 40.608 128.57 40.528V42.904C128.298 43.016 127.994 43.096 127.658 43.144C127.338 43.208 127.026 43.24 126.722 43.24Z" fill="#717171"/>
<defs>
<filter id="filter0_d_1309_8154" x="-349" y="0" width="548" height="80" filterUnits="userSpaceOnUse" color-interpolation-filters="sRGB">
<feFlood flood-opacity="0" result="BackgroundImageFix"/>
<feColorMatrix in="SourceAlpha" type="matrix" values="0 0 0 0 0 0 0 0 0 0 0 0 0 0 0 0 0 0 127 0" result="hardAlpha"/>
<feOffset dy="4"/>
<feGaussianBlur stdDeviation="2"/>
<feComposite in2="hardAlpha" operator="out"/>
<feColorMatrix type="matrix" values="0 0 0 0 0 0 0 0 0 0 0 0 0 0 0 0 0 0 0.25 0"/>
<feBlend mode="normal" in2="BackgroundImageFix" result="effect1_dropShadow_1309_8154"/>
<feBlend mode="normal" in="SourceGraphic" in2="effect1_dropShadow_1309_8154" result="shape"/>
</filter>
</defs>
</svg>
