<svg width="172" height="76" viewBox="0 0 172 76" fill="none" xmlns="http://www.w3.org/2000/svg">
<rect width="1440" height="1169" transform="translate(-234 -477)" fill="white"/>
<g filter="url(#filter0_d_1309_8154)">
<path d="M456.866 0H0L50.0272 35.4545L0 72H456.866L540 32.1818L456.866 0Z" fill="#D9D9D9"/>
</g>
<line x1="172.629" x2="172.629" y2="72" stroke="#BABABA" stroke-width="3"/>
<path d="M71.872 43V26.08H79.384C81.24 26.08 82.656 26.528 83.632 27.424C84.608 28.32 85.096 29.552 85.096 31.12C85.096 32.672 84.608 33.904 83.632 34.816C82.656 35.728 81.24 36.184 79.384 36.184H74.968V43H71.872ZM74.968 33.736H79.024C80.048 33.736 80.816 33.512 81.328 33.064C81.84 32.6 82.096 31.952 82.096 31.12C82.096 30.288 81.84 29.648 81.328 29.2C80.816 28.736 80.048 28.504 79.024 28.504H74.968V33.736ZM91.7339 43.24C90.6779 43.24 89.7499 42.992 88.9499 42.496C88.1499 41.984 87.5259 41.256 87.0779 40.312C86.6299 39.368 86.4059 38.24 86.4059 36.928C86.4059 35.616 86.6299 34.496 87.0779 33.568C87.5259 32.624 88.1499 31.904 88.9499 31.408C89.7499 30.896 90.6779 30.64 91.7339 30.64C92.7579 30.64 93.6539 30.896 94.4219 31.408C95.2059 31.904 95.7259 32.576 95.9819 33.424H95.7179L95.9819 30.88H98.8619C98.8139 31.376 98.7659 31.88 98.7179 32.392C98.6859 32.904 98.6699 33.408 98.6699 33.904V43H95.6939L95.6699 40.504H95.9579C95.7019 41.336 95.1819 42 94.3979 42.496C93.6139 42.992 92.7259 43.24 91.7339 43.24ZM92.5739 40.936C93.5179 40.936 94.2779 40.608 94.8539 39.952C95.4299 39.28 95.7179 38.272 95.7179 36.928C95.7179 35.584 95.4299 34.584 94.8539 33.928C94.2779 33.272 93.5179 32.944 92.5739 32.944C91.6299 32.944 90.8699 33.272 90.2939 33.928C89.7179 34.584 89.4299 35.584 89.4299 36.928C89.4299 38.272 89.7099 39.28 90.2699 39.952C90.8459 40.608 91.6139 40.936 92.5739 40.936ZM101.937 43V33.904C101.937 33.408 101.921 32.904 101.889 32.392C101.857 31.88 101.809 31.376 101.745 30.88H104.649L104.889 33.28H104.601C104.985 32.432 105.553 31.784 106.305 31.336C107.057 30.872 107.929 30.64 108.921 30.64C110.345 30.64 111.417 31.04 112.137 31.84C112.857 32.64 113.217 33.888 113.217 35.584V43H110.217V35.728C110.217 34.752 110.025 34.056 109.641 33.64C109.273 33.208 108.713 32.992 107.961 32.992C107.033 32.992 106.297 33.28 105.753 33.856C105.209 34.432 104.937 35.2 104.937 36.16V43H101.937ZM116.398 43V30.88H119.398V43H116.398ZM116.23 28.6V25.672H119.566V28.6H116.23ZM128.511 43.24C126.479 43.24 124.887 42.68 123.735 41.56C122.583 40.44 122.007 38.904 122.007 36.952C122.007 35.688 122.255 34.584 122.751 33.64C123.247 32.696 123.935 31.96 124.815 31.432C125.711 30.904 126.751 30.64 127.935 30.64C129.103 30.64 130.079 30.888 130.863 31.384C131.647 31.88 132.239 32.576 132.639 33.472C133.055 34.368 133.263 35.416 133.263 36.616V37.408H124.431V35.824H131.127L130.719 36.16C130.719 35.04 130.479 34.184 129.999 33.592C129.535 33 128.855 32.704 127.959 32.704C126.967 32.704 126.199 33.056 125.655 33.76C125.127 34.464 124.863 35.448 124.863 36.712V37.024C124.863 38.336 125.183 39.32 125.823 39.976C126.479 40.616 127.399 40.936 128.583 40.936C129.271 40.936 129.911 40.848 130.503 40.672C131.111 40.48 131.687 40.176 132.231 39.76L133.119 41.776C132.543 42.24 131.855 42.6 131.055 42.856C130.255 43.112 129.407 43.24 128.511 43.24ZM135.78 43V33.976C135.78 33.464 135.764 32.944 135.732 32.416C135.716 31.888 135.676 31.376 135.612 30.88H138.516L138.852 34.192H138.372C138.532 33.392 138.796 32.728 139.164 32.2C139.548 31.672 140.012 31.28 140.556 31.024C141.1 30.768 141.692 30.64 142.332 30.64C142.62 30.64 142.852 30.656 143.028 30.688C143.204 30.704 143.38 30.744 143.556 30.808L143.532 33.448C143.228 33.32 142.964 33.24 142.74 33.208C142.532 33.176 142.268 33.16 141.948 33.16C141.26 33.16 140.676 33.304 140.196 33.592C139.732 33.88 139.38 34.28 139.14 34.792C138.916 35.304 138.804 35.888 138.804 36.544V43H135.78Z" fill="#787878"/>
<defs>
<filter id="filter0_d_1309_8154" x="-4" y="0" width="548" height="80" filterUnits="userSpaceOnUse" color-interpolation-filters="sRGB">
<feFlood flood-opacity="0" result="BackgroundImageFix"/>
<feColorMatrix in="SourceAlpha" type="matrix" values="0 0 0 0 0 0 0 0 0 0 0 0 0 0 0 0 0 0 127 0" result="hardAlpha"/>
<feOffset dy="4"/>
<feGaussianBlur stdDeviation="2"/>
<feComposite in2="hardAlpha" operator="out"/>
<feColorMatrix type="matrix" values="0 0 0 0 0 0 0 0 0 0 0 0 0 0 0 0 0 0 0.25 0"/>
<feBlend mode="normal" in2="BackgroundImageFix" result="effect1_dropShadow_1309_8154"/>
<feBlend mode="normal" in="SourceGraphic" in2="effect1_dropShadow_1309_8154" result="shape"/>
</filter>
</defs>
</svg>
